<svg width="77" height="50" viewBox="0 0 77 50" fill="none" xmlns="http://www.w3.org/2000/svg">
<path d="M18.3828 16.8966C18.6429 16.8103 18.7296 16.6379 18.9898 16.6379C20.9841 16.5517 22.9785 16.6379 25.0596 16.5517C25.84 16.5517 31.3028 16.4655 31.3028 16.7241C31.3028 21.0345 31.3028 26.1207 31.3028 30.5172C31.563 30.431 31.8231 30.3448 32.1699 30.3448C32.1699 30.1724 32.1699 30 32.1699 29.8276C32.1699 25.6897 32.1699 20.6897 32.1699 16.5517C32.1699 15.5172 26.7071 15.8621 25.4064 15.8621C23.2386 15.8621 21.0708 15.8621 18.8163 15.8621C18.4695 15.8621 18.2094 16.2069 17.9492 16.2931C17.9492 16.5517 18.2961 16.6379 18.3828 16.8966Z" fill="black"/>
<path d="M25.6667 37.7586C25.0597 37.6724 24.7129 37.5862 24.7129 37.4138C24.0192 34.1379 21.5046 32.069 18.2962 31.9828C17.169 31.9828 16.1284 32.1552 15.1746 32.6724C14.4809 33.4483 13.6138 34.1379 12.7467 34.7414C12.2264 35.431 11.8796 36.2931 11.6194 37.3276C11.446 37.931 12.053 38.2759 11.3593 38.1897C11.0124 38.1035 10.5789 38.1897 10.232 38.1897C9.9719 38.1897 9.71176 38.1897 9.45163 38.1035C9.2782 38.3621 9.19149 38.6207 9.01807 38.8793C9.53834 39.0517 10.232 39.0517 10.839 39.0517H10.9257C12.8334 39.0517 11.9663 39.0517 12.3998 37.2414C12.3998 37.1552 12.4865 37.1552 12.4865 37.069C13.2669 34.4828 15.6949 32.6724 18.2962 32.7586C21.1577 32.931 23.4122 34.9138 23.8458 37.931C23.8458 38.1897 24.6262 38.4483 25.58 38.6207C25.6667 38.2759 25.6667 38.0172 25.6667 37.7586Z" fill="black"/>
<path d="M71.9707 10.431C71.9707 9.48276 71.5372 9.31035 70.7567 9.31035C58.4437 9.31035 46.1306 9.31035 33.7309 9.31035C32.777 9.31035 32.4302 9.56897 32.4302 10.6035C32.4302 17.069 32.4302 23.5345 32.4302 30V30.3448C32.6903 30.3448 33.0372 30.2586 33.2973 30.2586C33.2973 23.9655 33.2973 17.7586 33.2973 11.4655C33.2973 10.0862 33.2973 10.0862 34.6847 10.0862C40.4944 10.0862 46.3908 10.0862 52.2004 10.0862C58.0968 10.0862 63.9932 10.0862 69.8896 10.0862C70.8435 10.0862 71.1903 10.431 71.1903 11.2931C71.1903 18.4483 71.1036 25.6035 71.1036 32.8448C71.1036 34.3966 71.1036 34.3966 69.4561 34.4828C68.6757 34.4828 67.8953 34.4828 67.1149 34.4828C66.4212 34.4828 66.0743 34.6552 66.0743 35.431C66.0743 35.9483 66.5946 36.7241 65.554 36.8966C63.9065 37.1552 63.1261 36.8966 62.6926 35.9483C61.4786 33.3621 59.4842 31.9828 56.536 31.9828C53.6745 31.9828 51.5935 33.3621 50.4662 36.0345C50.1194 36.7241 49.7725 37.069 48.9921 36.9828C48.3851 36.8966 47.8649 36.9828 47.2579 36.9828C46.6509 36.9828 46.1306 36.9828 46.1306 37.7586C46.1306 37.7586 46.1306 37.8448 46.0439 37.8448C46.0439 38.1035 46.1306 38.3621 46.1306 38.6207C46.2173 38.6207 46.3908 38.6207 46.4775 38.6207C46.5642 38.5345 46.7376 38.4483 46.7376 38.3621C47.0845 37.7586 47.4313 37.6724 47.9516 37.6724C48.4718 37.6724 48.9921 37.6724 49.5124 37.6724C50.3795 37.7586 50.7263 37.4138 51.0732 36.6379C51.9403 34.3103 53.7613 33.0172 56.1892 32.7586C58.4437 32.5862 60.8716 33.8793 61.652 36.0345C62.259 37.6724 63.2128 37.931 64.6002 37.7586C64.7736 37.7586 64.9471 37.7586 65.1205 37.7586C66.5946 37.7586 66.8547 37.5862 66.9414 36.1207C66.9414 35.5172 67.2016 35.2586 67.8085 35.3448C68.6757 35.3448 69.5428 35.3448 70.4099 35.3448C71.9707 35.3448 71.9707 35.3448 71.9707 33.8793C71.9707 25.9483 71.9707 18.1897 71.9707 10.431Z" fill="black"/>
<path d="M61.9119 38.6207C61.9119 41.5517 59.484 43.9655 56.5358 43.9655C53.5876 43.9655 51.1597 41.4655 51.1597 38.5345C51.1597 35.6035 53.5876 33.2759 56.6225 33.2759C59.6574 33.2759 61.9986 35.5172 61.9119 38.6207ZM56.5358 43.1035C59.0504 43.1035 61.1315 41.1207 61.1315 38.6207C61.1315 36.1207 59.0504 33.9655 56.5358 33.9655C54.0212 33.9655 52.0268 36.0345 52.0268 38.5345C52.0268 41.1207 54.0212 43.1035 56.5358 43.1035Z" fill="black"/>
<path d="M18.1227 33.2759C21.2443 33.2759 23.4988 35.6034 23.4988 38.7069C23.4988 41.6379 21.0709 43.9655 18.1227 43.9655C15.1745 43.9655 12.7466 41.4655 12.7466 38.5345C12.7466 35.6034 15.1745 33.1897 18.1227 33.2759ZM18.1227 43.1034C20.6373 43.1034 22.7184 41.1207 22.7184 38.6207C22.7184 36.2069 20.5506 33.9655 18.1227 33.9655C15.6081 33.9655 13.6137 36.0345 13.6137 38.5345C13.6137 41.1207 15.5214 43.1034 18.1227 43.1034Z" fill="black"/>
<path d="M56.5361 35.6897C58.1836 35.6897 59.4843 36.8966 59.3976 38.6207C59.3976 40.1724 58.0969 41.5517 56.5361 41.5517C54.9753 41.5517 53.5879 40.1724 53.5879 38.6207C53.7613 36.9828 54.9753 35.6897 56.5361 35.6897ZM56.5361 40.6034C57.6633 40.6034 58.7039 39.7414 58.7039 38.6207C58.7039 37.5 57.7501 36.5517 56.6228 36.4655C55.4956 36.4655 54.6284 37.3276 54.5417 38.4483C54.455 39.569 55.4088 40.6034 56.5361 40.6034Z" fill="black"/>
<path d="M20.984 38.6207C20.984 40.1724 19.6833 41.4655 18.1225 41.4655C16.5617 41.4655 15.1743 40.0862 15.1743 38.5345C15.1743 36.8966 16.475 35.6897 18.1225 35.6897C19.77 35.6897 21.0707 36.9828 20.984 38.6207ZM18.1225 40.6034C19.2498 40.6034 20.2036 39.6552 20.2036 38.5345C20.2036 37.4138 19.1631 36.4655 18.1225 36.4655C17.082 36.4655 16.1281 37.4138 16.0414 38.4483C16.0414 39.6552 16.9086 40.6034 18.1225 40.6034Z" fill="black"/>
<path d="M24.1058 25.8621V18.9655H19.7702L12.313 26.3793H24.0191L24.1058 25.8621Z" stroke="black" stroke-miterlimit="10"/>
<path d="M18.2096 16.5517L9.27829 25.6035L6.24338 29.8276L5.28955 33.7069L6.15667 37.5862C6.15667 37.5862 7.8909 38.5345 9.53842 38.5345" stroke="black" stroke-miterlimit="10"/>
<path d="M25.4932 38.1897H46.3907" stroke="black" stroke-miterlimit="10"/>
<path d="M31.3027 30.5172H33.3838" stroke="black" stroke-miterlimit="10"/>
</svg>
