<svg width="76" height="54" viewBox="0 0 76 54" fill="none" xmlns="http://www.w3.org/2000/svg">
<path d="M71.366 30.7241C71.088 30.7241 70.8099 30.631 70.5319 30.5379C70.5319 32.2138 70.5319 33.7966 70.5319 35.4724C70.5319 37.1483 70.5319 37.1483 68.7709 37.2414C67.9368 37.2414 67.1026 37.2414 66.2685 37.2414C65.527 37.2414 65.1563 37.4276 65.1563 38.2655C65.1563 38.8241 65.7124 39.6621 64.6002 39.8483C62.8392 40.1276 62.0051 39.8483 61.5416 38.8241C60.2441 36.031 58.1124 34.5414 54.9611 34.5414C51.9026 34.5414 49.6782 36.031 48.4733 38.9172C48.1026 39.6621 47.7319 40.0345 46.8977 39.9414C46.249 39.8483 45.6929 39.9414 45.0441 39.9414C44.3953 39.9414 43.8392 39.9414 43.8392 40.7793C43.8392 40.9655 43.2831 41.2448 43.0051 41.2448C38.0929 41.2448 33.1807 41.2448 28.1758 41.2448C27.6197 41.2448 27.4343 41.0586 27.249 40.4069C26.5075 36.869 23.8197 34.6345 20.3904 34.5414C16.7758 34.4483 14.1807 36.5897 13.2538 40.3138C13.0685 40.9655 12.7904 41.3379 12.049 41.2448C11.9563 41.2448 11.8636 41.2448 11.6782 41.2448C11.6782 41.5241 11.6782 41.8966 11.6782 42.1759C13.6246 42.1759 13.6246 42.1759 14.088 40.2207C14.088 40.1276 14.1807 40.1276 14.1807 40.0345C15.0148 37.2414 17.6099 35.2862 20.3904 35.3793C23.449 35.5655 25.8587 37.7069 26.3221 40.9655C26.5075 41.8966 26.7855 42.0828 27.6197 42.0828C32.7172 42.0828 37.8148 42.0828 42.9124 42.0828C43.3758 42.0828 44.1172 41.8035 44.3026 41.431C44.6733 40.7793 45.0441 40.6862 45.6002 40.6862C46.1563 40.6862 46.7124 40.6862 47.2685 40.6862C48.1953 40.7793 48.566 40.4069 48.9368 39.569C49.8636 37.0552 51.8099 35.6586 54.405 35.3793C56.8148 35.1931 59.4099 36.5897 60.2441 38.9172C60.8929 40.6862 61.9124 40.9655 63.3953 40.7793C63.5807 40.7793 63.766 40.7793 63.9514 40.7793C65.527 40.7793 65.805 40.5931 65.8977 39.0103C65.8977 38.3586 66.1758 38.0793 66.8246 38.1724C67.7514 38.1724 68.6782 38.1724 69.605 38.1724C71.2733 38.1724 71.2733 38.1724 71.2733 36.5897C71.366 34.5414 71.366 32.5862 71.366 30.7241Z" fill="black"/>
<path d="M60.6148 41.7103C60.6148 44.8759 58.0196 47.4828 54.8684 47.4828C51.7172 47.4828 49.1221 44.7828 49.1221 41.6172C49.1221 38.4517 51.7172 35.9379 54.9611 35.9379C58.205 35.9379 60.7074 38.3586 60.6148 41.7103ZM54.8684 46.5517C57.5562 46.5517 59.7806 44.4103 59.7806 41.7103C59.7806 39.0103 57.5562 36.6828 54.8684 36.6828C52.1806 36.6828 50.0489 38.9172 50.0489 41.6172C50.0489 44.4103 52.1806 46.5517 54.8684 46.5517Z" fill="black"/>
<path d="M20.2976 35.9379C23.6342 35.9379 26.044 38.4517 26.044 41.8035C26.044 44.969 23.4488 47.4828 20.2976 47.4828C17.1464 47.4828 14.5513 44.7828 14.5513 41.6172C14.5513 38.4517 17.1464 35.8448 20.2976 35.9379ZM20.2976 46.5517C22.9854 46.5517 25.2098 44.4103 25.2098 41.7103C25.2098 39.1035 22.8927 36.6828 20.2976 36.6828C17.6098 36.6828 15.4781 38.9172 15.4781 41.6172C15.4781 44.4103 17.5171 46.5517 20.2976 46.5517Z" fill="black"/>
<path d="M54.8685 38.5448C56.6295 38.5448 58.0197 39.8483 57.927 41.7103C57.927 43.3862 56.5368 44.8759 54.8685 44.8759C53.2002 44.8759 51.7173 43.3862 51.7173 41.7103C51.9027 39.9414 53.2002 38.5448 54.8685 38.5448ZM54.8685 43.8517C56.0734 43.8517 57.1856 42.9207 57.1856 41.7103C57.1856 40.5 56.1661 39.4759 54.9612 39.3828C53.7563 39.3828 52.8295 40.3138 52.7368 41.5241C52.6441 42.7345 53.6636 43.8517 54.8685 43.8517Z" fill="black"/>
<path d="M23.3562 41.7103C23.3562 43.3862 21.966 44.7828 20.2977 44.7828C18.6294 44.7828 17.1465 43.2931 17.1465 41.6172C17.1465 39.8483 18.5367 38.5448 20.2977 38.5448C22.0587 38.5448 23.4489 39.9414 23.3562 41.7103ZM20.2977 43.8517C21.5026 43.8517 22.5221 42.8276 22.5221 41.6172C22.5221 40.4069 21.4099 39.3828 20.2977 39.3828C19.1855 39.3828 18.166 40.4069 18.0733 41.5241C18.0733 42.8276 19.0001 43.8517 20.2977 43.8517Z" fill="black"/>
<path d="M70.9949 35.7517V14.8035C70.9949 14.0586 70.3461 13.4069 69.6046 13.5L45.0437 13.4069C44.7656 13.4069 44.4876 13.5931 44.2095 13.7793L40.1315 19.2724C40.1315 19.2724 40.0388 19.3655 39.9461 19.3655L28.1754 28.4897C27.99 28.5828 27.8973 28.6759 27.7119 28.6759L10.5656 32.0276C10.3802 32.0276 10.1022 32.2138 9.91683 32.3069L6.02414 35.6586C5.65341 35.9379 5.46805 36.4966 5.56073 36.9621L6.58024 41.8035H11.8632" stroke="black" stroke-miterlimit="10"/>
<path d="M31.9754 29.8862H44.951C45.4145 29.8862 45.8779 29.5138 45.8779 28.9552V22.1586C45.8779 21.6931 45.5071 21.2276 44.951 21.2276H41.151C40.9657 21.2276 40.7803 21.3207 40.5949 21.4138L31.4193 28.2103C30.6779 28.769 31.0486 29.8862 31.9754 29.8862Z" stroke="black" stroke-miterlimit="10"/>
</svg>
