<svg width="88" height="42" viewBox="0 0 88 42" fill="none" xmlns="http://www.w3.org/2000/svg">
<path d="M87.8766 1.95914C87.8797 0.916523 87.4552 0.750442 86.5728 0.753518C73.4289 0.771971 35.9951 0.778122 22.8511 0.747366C21.7959 0.744291 21.4836 1.07338 21.4897 2.13753C21.5291 9.15598 21.5109 19.1744 21.5139 26.1898C21.5139 26.5866 21.5139 26.9833 21.5139 27.377C21.3866 27.3862 21.2593 27.3924 21.1319 27.4016C21.0986 26.9495 21.0349 26.5004 21.0349 26.0483C21.0288 21.5426 21.0379 17.0369 21.0258 12.5281C21.0227 11.1041 20.7377 10.812 19.3733 10.8027C17.0417 10.7873 14.713 10.8181 12.3814 10.7935C11.4536 10.7843 10.8168 11.1687 10.2923 11.9376C8.22442 14.9732 6.22326 18.0672 3.98864 20.9767C2.22398 23.2742 1.18398 25.6485 1.58118 28.6011C1.65092 29.127 1.48112 29.8467 1.1476 30.2403C0.0499909 31.529 0.00450996 32.9591 0.556345 34.3801C1.15669 35.9209 2.60298 35.9548 3.98864 35.9332C4.02502 35.9332 4.06141 35.9332 4.09779 35.9332C6.13533 35.9517 6.13533 35.9517 6.6053 34.011C6.6235 33.9403 6.65988 33.8726 6.68111 33.8049C7.50583 30.9569 10.08 29.0255 12.8695 29.1608C15.9077 29.3084 18.3272 31.5167 18.8124 34.7768C18.9519 35.7149 19.3036 35.9363 20.1253 35.9363C25.2222 35.924 30.3221 35.9578 35.419 35.9178C35.895 35.9148 36.5893 35.638 36.7925 35.2689C37.126 34.6569 37.5172 34.5338 38.0993 34.5554C38.6451 34.5738 39.1939 34.5185 39.7366 34.5646C39.7457 34.5646 39.7518 34.5646 39.7578 34.5677C39.5608 34.3032 39.397 34.0202 39.2697 33.7188C39.2363 33.7157 39.206 33.7157 39.1727 33.7096C38.5602 33.645 37.9356 33.7096 37.317 33.6942C36.7015 33.6819 36.1527 33.6727 36.083 34.5461C36.0678 34.7276 35.5584 35.0075 35.2734 35.0075C30.3585 35.0352 25.4435 35.0229 20.5255 35.0352C19.9464 35.0352 19.7402 34.8168 19.6159 34.2232C18.87 30.6555 16.2169 28.3888 12.818 28.3366C9.23107 28.2843 6.6235 30.388 5.72601 34.1125C5.55924 34.8076 5.2712 35.1305 4.54957 35.0352C4.1554 34.9829 3.7491 35.0044 3.34887 35.0321C2.47261 35.0874 1.72066 34.8291 1.34771 33.9956C0.938384 33.0852 0.853486 32.0734 1.55086 31.283C2.29978 30.4341 2.48777 29.4991 2.43925 28.4258C2.40287 27.6507 2.35132 26.8634 2.46048 26.1037C2.56963 25.3625 2.72124 24.5413 3.12147 23.9446C5.68053 20.1309 8.29113 16.3511 10.9563 12.6142C11.2989 12.1345 12.0539 11.7285 12.6361 11.6977C14.7797 11.5901 16.9325 11.6854 19.0792 11.6393C19.9403 11.6208 20.2132 11.9222 20.2071 12.7895C20.1768 17.5905 20.2011 22.3915 20.1829 27.1955C20.1798 27.9952 20.2465 28.5088 21.2683 28.5242C22.3508 28.5426 22.4387 27.9829 22.4357 27.1402C22.4175 20.1217 22.4145 10.1063 22.4145 3.08788C22.4145 1.62083 22.4266 1.61468 23.8577 1.61468C30.0856 1.6116 36.3104 1.61468 42.5382 1.61468C48.8389 1.61775 79.4232 1.63621 85.7208 1.59622C86.7244 1.59007 87.0853 1.93761 87.0792 2.92487C87.0398 10.7153 87.0216 21.5057 86.9973 29.2931C86.9913 31.0185 86.9913 31.0185 85.2509 31.0246C84.414 31.0277 83.5741 31.0584 82.7403 31.0185C81.9702 30.9816 81.6336 31.2307 81.6094 32.0795C81.6003 32.4086 81.7246 32.6977 81.6215 33.0145C81.6548 33.076 81.6852 33.1375 81.7155 33.2021C82.2552 33.0576 82.5614 32.8976 82.5645 32.7223C82.5857 32.0272 82.8555 31.8243 83.4832 31.8427C84.3928 31.8704 85.3024 31.8489 86.2151 31.8489C87.8554 31.8458 87.8554 31.8458 87.8554 30.228C87.8584 21.801 87.8402 10.3801 87.8766 1.95914Z" fill="black"/>
<path d="M52.9049 35.5242C52.8988 38.7412 50.3034 41.3585 47.144 41.3309C44.0149 41.3032 41.4164 38.6274 41.4194 35.4319C41.4225 32.2395 44.0179 29.6775 47.2349 29.6898C50.4792 29.7021 52.9079 32.1995 52.9049 35.5242ZM47.15 40.3774C49.8728 40.3928 52.0408 38.2707 52.0832 35.5519C52.1257 32.8607 49.8213 30.4833 47.1925 30.5079C44.5152 30.5325 42.3685 32.7285 42.3563 35.4534C42.3412 38.2122 44.4363 40.362 47.15 40.3774Z" fill="black"/>
<path d="M12.6696 29.6898C15.9563 29.6929 18.3759 32.2118 18.3608 35.6072C18.3456 38.7689 15.7866 41.3278 12.6362 41.3308C9.52838 41.3339 6.86926 38.6243 6.88139 35.4627C6.89352 32.2456 9.45864 29.6867 12.6696 29.6898ZM12.6211 40.3743C15.3257 40.3774 17.5057 38.2368 17.5482 35.5334C17.5906 32.87 15.2802 30.5079 12.6332 30.511C9.98015 30.5141 7.80617 32.7469 7.81527 35.4657C7.83043 38.2522 9.90436 40.3713 12.6211 40.3743Z" fill="black"/>
<path d="M18.3666 17.3937C18.3666 18.1687 18.3423 18.9438 18.3726 19.7157C18.406 20.6046 17.939 21.0659 17.1689 21.3212C14.9403 22.0655 12.7451 22.9605 10.4711 23.511C9.01872 23.8647 7.44811 23.7878 5.93209 23.7601C5.17407 23.7478 4.94364 23.0804 5.40754 22.3976C7.21768 19.725 9.02175 17.0461 10.9229 14.438C11.2715 13.9583 12.0477 13.6046 12.6572 13.5492C14.1004 13.42 15.5619 13.5154 17.0173 13.5062C17.9178 13.5 18.3635 13.9398 18.3696 14.8471C18.3726 15.696 18.3696 16.5448 18.3666 17.3937ZM6.15343 22.9328C7.72706 22.8436 9.02782 22.9697 10.2134 22.659C12.4116 22.0778 14.534 21.2166 16.705 20.5246C17.3387 20.3216 17.5752 19.9772 17.5631 19.3313C17.5388 18.0057 17.5327 16.6771 17.5661 15.3515C17.5843 14.5764 17.2538 14.3027 16.52 14.3243C15.4315 14.355 14.337 14.3642 13.2484 14.3212C12.351 14.2843 11.7597 14.6564 11.2655 15.4069C10.0345 17.2768 8.74584 19.1037 7.48147 20.949C7.09943 21.5057 6.72648 22.0747 6.15343 22.9328Z" fill="black"/>
<path d="M47.1593 32.3594C48.9361 32.3502 50.2641 33.6942 50.255 35.4965C50.2459 37.2096 48.8785 38.6366 47.2321 38.6459C45.5463 38.6551 44.0727 37.1542 44.1 35.4565C44.1273 33.7157 45.4583 32.3686 47.1593 32.3594ZM47.1138 37.6894C48.3539 37.7232 49.3818 36.7605 49.4212 35.5303C49.4576 34.337 48.4115 33.2482 47.22 33.2359C46.0405 33.2267 45.0551 34.1678 44.9975 35.3642C44.9368 36.6098 45.8889 37.6555 47.1138 37.6894Z" fill="black"/>
<path d="M73.714 35.5242C73.7079 38.7412 71.1125 41.3585 67.9531 41.3309C64.824 41.3032 62.2255 38.6274 62.2285 35.4319C62.2316 32.2395 64.827 29.6775 68.044 29.6898C71.2883 29.7021 73.717 32.1995 73.714 35.5242ZM67.9591 40.3774C70.6819 40.3928 72.8499 38.2707 72.8923 35.5519C72.9347 32.8607 70.6304 30.4833 68.0016 30.5079C65.3243 30.5325 63.1776 32.7285 63.1654 35.4534C63.1503 38.2122 65.2454 40.362 67.9591 40.3774Z" fill="black"/>
<path d="M61.116 34.5C61.1766 34.5031 61.2372 34.5062 61.2979 34.5092C61.78 31.1046 64.6301 28.4965 68.1079 28.4657C71.4856 28.435 74.4873 31.1876 74.9936 34.5431H76.1761C75.7062 30.3541 72.4316 27.3216 68.1624 27.3062C63.9297 27.2909 60.4519 30.4126 59.9517 34.4754C60.3398 34.46 60.7279 34.4785 61.116 34.5Z" fill="black"/>
<path d="M40.3069 34.5C40.3675 34.5031 40.4282 34.5062 40.4888 34.5092C40.9709 31.1046 43.821 28.4965 47.2988 28.4657C50.6765 28.435 53.6783 31.1876 54.1846 34.5431H55.3671C54.8972 30.3541 51.6225 27.3216 47.3534 27.3062C43.1206 27.2909 39.6429 30.4126 39.1426 34.4754C39.5307 34.46 39.9188 34.4785 40.3069 34.5Z" fill="black"/>
<path d="M67.965 32.3594C69.7418 32.3502 71.0699 33.6942 71.0608 35.4965C71.0517 37.2096 69.6842 38.6366 68.0378 38.6459C66.352 38.6551 64.8784 37.1542 64.9056 35.4565C64.936 33.7157 66.2671 32.3686 67.965 32.3594ZM67.9226 37.6894C69.1627 37.7232 70.1906 36.7605 70.23 35.5303C70.2664 34.337 69.2203 33.2482 68.0287 33.2359C66.8492 33.2267 65.8638 34.1678 65.8062 35.3642C65.7455 36.6098 66.6976 37.6555 67.9226 37.6894Z" fill="black"/>
<path d="M15.7229 35.5242C15.7047 37.2188 14.3403 38.6213 12.6878 38.6459C11.0444 38.6674 9.51926 37.145 9.52836 35.4903C9.53746 33.7588 10.9443 32.3563 12.6696 32.3594C14.407 32.3625 15.7411 33.7465 15.7229 35.5242ZM12.615 37.6924C13.8339 37.7109 14.8587 36.7083 14.8739 35.4842C14.886 34.3093 13.7945 33.199 12.6423 33.2144C11.4992 33.2298 10.4986 34.2386 10.4683 35.4042C10.4349 36.6744 11.3749 37.674 12.615 37.6924Z" fill="black"/>
<path d="M61.3008 33.8972H54.0088V34.6968H61.3008V33.8972Z" fill="black"/>
<path d="M82.5888 33.7557H74.939V34.54H82.5888V33.7557Z" fill="black"/>
<path d="M82.5889 31.5874H81.6914V34.5707H82.5889V31.5874Z" fill="black"/>
</svg>
