<svg width="94" height="61" viewBox="0 0 94 61" fill="none" xmlns="http://www.w3.org/2000/svg">
<path d="M32.8155 14.7241C32.4979 14.7241 32.1804 14.8293 31.8628 14.8293C31.8628 19.1414 31.8628 33.2345 31.8628 37.3362C32.1804 37.231 32.4979 37.1259 32.9214 37.1259C32.9214 36.9155 32.9214 36.7052 32.9214 36.4948C32.8155 32.7086 32.8155 18.7207 32.8155 14.7241Z" fill="black"/>
<path d="M28.1576 46.0655C27.4166 45.9603 26.9932 45.8552 26.9932 45.6448C26.1464 41.6483 23.0765 39.1241 19.1599 39.019C17.7837 39.019 16.5135 39.2293 15.3491 39.8603C14.2905 40.3862 13.2319 41.2276 12.3851 42.3845C11.75 43.2259 11.3265 44.2776 11.009 45.5397C10.7973 46.2759 11.5382 46.6965 10.6914 46.5914C10.268 46.4862 9.7387 46.5914 9.31528 46.5914C8.99771 46.5914 8.68014 46.5914 8.36257 46.4862C8.15086 46.8017 7.72744 46.9069 7.62158 47.1172C8.25672 47.3276 7.0923 47.4328 10.0563 47.5379H10.1621C12.491 47.5379 11.4324 47.5379 11.9617 45.3293C11.9617 45.2241 12.0675 45.2241 12.0675 45.119C13.0202 41.9638 15.9842 39.7552 19.1599 39.8603C22.6531 40.0707 25.4054 42.4897 25.9346 46.1707C25.9346 46.4862 26.8873 46.8017 28.0518 47.0121C28.1576 46.6966 28.1576 46.381 28.1576 46.0655Z" fill="black"/>
<path d="M90.1329 12.7259C90.1329 11.569 89.6036 11.3586 88.6509 11.3586C73.6194 11.3586 58.5879 11.3586 34.8266 11.3586C33.6622 11.3586 33.2388 11.6741 33.2388 12.9362C33.2388 20.8241 33.2388 28.7121 33.2388 36.6V37.0207C33.5563 37.0207 33.9798 36.9155 34.2973 36.9155C34.2973 29.2379 34.2973 21.6655 34.2973 13.9879C34.2973 12.3052 34.2973 12.3052 35.991 12.3052C43.0834 12.3052 58.9054 12.3052 65.9978 12.3052C73.196 12.3052 80.3942 12.3052 87.5924 12.3052C88.7568 12.3052 89.1802 12.7259 89.1802 13.7776C89.1802 22.5069 89.0743 31.2362 89.0743 40.0707C89.0743 41.9638 89.0743 41.9638 87.0631 42.069C86.1104 42.069 85.1577 42.069 84.205 42.069C83.3581 42.069 82.9347 42.2793 82.9347 43.2259C82.9347 43.8569 83.5698 44.8034 82.2996 45.0138C80.2883 45.3293 79.3356 45.0138 78.8063 43.8569C77.3243 40.7017 74.8897 39.019 71.2906 39.019C67.7973 39.019 65.2568 40.7017 63.8806 43.9621C63.4572 44.8035 63.0338 45.2241 62.0811 45.119C61.3401 45.0138 60.705 45.119 59.964 45.119C59.223 45.119 58.5879 45.119 58.5879 46.0655C58.5879 46.0655 58.5878 46.1707 58.482 46.1707C58.482 46.4862 58.211 46.5084 58.211 46.8239C58.3168 46.8239 58.482 46.8704 59.0734 46.8239C59.1792 46.7188 59.5046 46.9291 59.5046 46.8239C59.928 46.0877 60.1757 45.9603 60.8108 45.9603C61.446 45.9603 62.0811 45.9603 62.7162 45.9603C63.7748 46.0655 64.1982 45.6448 64.6216 44.6983C65.6802 41.8586 67.9032 40.281 70.8671 39.9655C73.6194 39.7552 76.5833 41.3328 77.536 43.9621C78.277 45.9603 79.4415 46.2759 81.1351 46.0655C81.3469 46.0655 81.5586 46.0655 81.7703 46.0655C83.5698 46.0655 83.8874 45.8552 83.9933 44.0672C83.9933 43.331 84.3108 43.0155 85.0518 43.1207C86.1104 43.1207 87.1689 43.1207 88.2275 43.1207C90.1329 43.1207 90.1329 43.1207 90.1329 41.3328C90.1329 31.6569 90.1329 22.1914 90.1329 12.7259Z" fill="black"/>
<path d="M77.8537 47.1172C77.8537 50.6931 74.8897 53.6379 71.2906 53.6379C67.6915 53.6379 64.7275 50.5879 64.7275 47.0121C64.7275 43.4362 67.6915 40.5965 71.3965 40.5965C75.1014 40.5965 77.9595 43.331 77.8537 47.1172ZM71.2906 52.5862C74.3604 52.5862 76.901 50.1672 76.901 47.1172C76.901 44.0672 74.3604 41.4379 71.2906 41.4379C68.2208 41.4379 65.7861 43.9621 65.7861 47.0121C65.7861 50.1672 68.2208 52.5862 71.2906 52.5862Z" fill="black"/>
<path d="M18.9483 40.5966C22.7591 40.5966 25.5114 43.4362 25.5114 47.2224C25.5114 50.7983 22.5474 53.6379 18.9483 53.6379C15.3492 53.6379 12.3853 50.5879 12.3853 47.0121C12.3853 43.4362 15.3492 40.4914 18.9483 40.5966ZM18.9483 52.5862C22.0181 52.5862 24.5587 50.1672 24.5587 47.1172C24.5587 44.1724 21.9123 41.4379 18.9483 41.4379C15.8785 41.4379 13.4438 43.9621 13.4438 47.0121C13.4438 50.1672 15.7726 52.5862 18.9483 52.5862Z" fill="black"/>
<path d="M71.2905 43.5414C73.3018 43.5414 74.8896 45.0138 74.7837 47.1172C74.7837 49.0103 73.1959 50.6931 71.2905 50.6931C69.3851 50.6931 67.6914 49.0103 67.6914 47.1172C67.9031 45.119 69.3851 43.5414 71.2905 43.5414ZM71.2905 49.5362C72.6666 49.5362 73.9369 48.4845 73.9369 47.1172C73.9369 45.75 72.7725 44.5931 71.3964 44.4879C70.0202 44.4879 68.9617 45.5397 68.8558 46.9069C68.75 48.2741 69.9144 49.5362 71.2905 49.5362Z" fill="black"/>
<path d="M22.4415 47.1172C22.4415 49.0103 20.8536 50.5879 18.9482 50.5879C17.0428 50.5879 15.3491 48.9052 15.3491 47.0121C15.3491 45.0138 16.937 43.5414 18.9482 43.5414C20.9595 43.5414 22.5473 45.119 22.4415 47.1172ZM18.9482 49.5362C20.3243 49.5362 21.4888 48.3793 21.4888 47.0121C21.4888 45.6448 20.2185 44.4879 18.9482 44.4879C17.678 44.4879 16.5135 45.6448 16.4077 46.9069C16.4077 48.3793 17.4662 49.5362 18.9482 49.5362Z" fill="black"/>
<path d="M29.4281 31.5517V23.1379H24.1353L18.3132 30.3948C17.6781 31.0259 18.1015 32.1828 19.0542 32.1828H29.3222L29.4281 31.5517Z" stroke="black" stroke-miterlimit="10"/>
<path d="M21.9121 20.719L13.3377 32.4983L7.62152 36.3896L6.03369 38.5983C4.33999 40.9121 2.75215 44.3828 5.18684 45.8552L6.77468 46.6965C6.77468 46.6965 6.45711 46.9069 8.57423 46.8017" stroke="black" stroke-miterlimit="10"/>
<path d="M27.5962 46.3944H58.6421" stroke="black" stroke-miterlimit="10"/>
<path d="M31.8628 37.231H34.4033" stroke="black" stroke-miterlimit="10"/>
<path d="M21.2769 21.5603C21.2769 21.5603 24.876 17.1431 28.2633 16.1966C31.6507 15.25 32.3917 15.25 32.3917 15.25" stroke="black" stroke-miterlimit="10"/>
</svg>
