<svg width="89" height="58" viewBox="0 0 89 58" fill="none" xmlns="http://www.w3.org/2000/svg">
<path d="M31.07 14C30.7693 14 30.4686 14.1 30.168 14.1C30.168 18.2 30.168 31.6 30.168 35.5C30.4686 35.4 30.7693 35.3 31.1702 35.3C31.1702 35.1 31.1702 34.9 31.1702 34.7C31.07 31.1 31.07 17.8 31.07 14Z" fill="black"/>
<path d="M26.66 43.8C25.9584 43.7 25.5575 43.6 25.5575 43.4C24.7557 39.6 21.8492 37.2 18.1409 37.1C16.8379 37.1 15.6352 37.3 14.5328 37.9C13.5305 38.4 12.5282 39.2 11.7264 40.3C11.1251 41.1 10.7242 42.1 10.4235 43.3C10.2231 44 10.9246 44.4 10.1228 44.3C9.72194 44.2 9.22081 44.3 8.81991 44.3C8.51924 44.3 8.21856 44.3 7.91789 44.2C7.71744 44.5 7.31653 44.6 7.21631 44.8C7.81766 45 6.71518 45.1 9.52149 45.2H9.62171C11.8267 45.2 10.8244 45.2 11.3255 43.1C11.3255 43 11.4258 43 11.4258 42.9C12.3278 39.9 15.1341 37.8 18.1409 37.9C21.4483 38.1 24.0541 40.4 24.5553 43.9C24.5553 44.2 25.4573 44.5 26.5598 44.7C26.66 44.4 26.66 44.1 26.66 43.8Z" fill="black"/>
<path d="M77.1734 12.1C77.1734 11 76.6723 10.8 75.7703 10.8C61.5383 10.8 47.3063 10.8 32.9741 10.8C31.8716 10.8 31.4707 11.1 31.4707 12.3C31.4707 19.8 31.4707 27.3 31.4707 34.8V35.2C31.7714 35.2 32.1723 35.1 32.473 35.1C32.473 27.8 32.473 20.6 32.473 13.3C32.473 11.7 32.473 11.7 34.0766 11.7C40.7916 11.7 47.607 11.7 54.3221 11.7C61.1374 11.7 67.9527 11.7 74.768 11.7C75.8705 11.7 76.2714 12.1 76.2714 13.1C76.2714 21.4 76.1712 29.7 76.1712 38.1C76.1712 39.9 76.1712 39.9 74.2669 40C73.3648 40 72.4628 40 71.5608 40C70.759 40 70.3581 40.2 70.3581 41.1C70.3581 41.7 70.9594 42.6 69.7567 42.8C67.8525 43.1 66.9504 42.8 66.4493 41.7C65.0462 38.7 62.741 37.1 59.3333 37.1C56.0259 37.1 53.6205 38.7 52.3176 41.8C51.9167 42.6 51.5158 43 50.6137 42.9C49.9121 42.8 49.3108 42.9 48.6092 42.9C47.9076 42.9 47.3063 42.9 47.3063 43.8C47.3063 43.8 47.3063 43.9 47.2061 43.9C47.2061 44.2 47.3063 44.5 47.3063 44.8C47.4065 44.8 47.607 44.8 47.7072 44.8C47.8074 44.7 48.0079 44.6 48.0079 44.5C48.4088 43.8 48.8097 43.7 49.411 43.7C50.0124 43.7 50.6137 43.7 51.2151 43.7C52.2173 43.8 52.6182 43.4 53.0191 42.5C54.0214 39.8 56.1261 38.3 58.9324 38C61.5383 37.8 64.3446 39.3 65.2466 41.8C65.9482 43.7 67.0507 44 68.6543 43.8C68.8547 43.8 69.0552 43.8 69.2556 43.8C70.9594 43.8 71.2601 43.6 71.3603 41.9C71.3603 41.2 71.661 40.9 72.3626 41C73.3648 41 74.3671 41 75.3694 41C77.1734 41 77.1734 41 77.1734 39.3C77.1734 30.1 77.1734 21.1 77.1734 12.1Z" fill="black"/>
<path d="M65.5471 44.8C65.5471 48.2 62.7408 51 59.3331 51C55.9254 51 53.1191 48.1 53.1191 44.7C53.1191 41.3 55.9254 38.6 59.4333 38.6C62.9412 38.6 65.6473 41.2 65.5471 44.8ZM59.3331 50C62.2396 50 64.645 47.7 64.645 44.8C64.645 41.9 62.2396 39.4 59.3331 39.4C56.4266 39.4 54.1214 41.8 54.1214 44.7C54.1214 47.7 56.4266 50 59.3331 50Z" fill="black"/>
<path d="M17.9405 38.6C21.5486 38.6 24.1545 41.3 24.1545 44.9C24.1545 48.3 21.3482 51 17.9405 51C14.5329 51 11.7266 48.1 11.7266 44.7C11.7266 41.3 14.5329 38.5 17.9405 38.6ZM17.9405 50C20.8471 50 23.2525 47.7 23.2525 44.8C23.2525 42 20.7468 39.4 17.9405 39.4C15.034 39.4 12.7288 41.8 12.7288 44.7C12.7288 47.7 14.9338 50 17.9405 50Z" fill="black"/>
<path d="M59.3334 41.4C61.2377 41.4 62.7411 42.8 62.6409 44.8C62.6409 46.6 61.1375 48.2 59.3334 48.2C57.5294 48.2 55.9258 46.6 55.9258 44.8C56.1262 42.9 57.5294 41.4 59.3334 41.4ZM59.3334 47.1C60.6364 47.1 61.8391 46.1 61.8391 44.8C61.8391 43.5 60.7366 42.4 59.4337 42.3C58.1307 42.3 57.1285 43.3 57.0283 44.6C56.928 45.9 58.0305 47.1 59.3334 47.1Z" fill="black"/>
<path d="M21.2478 44.8C21.2478 46.6 19.7444 48.1 17.9404 48.1C16.1363 48.1 14.5327 46.5 14.5327 44.7C14.5327 42.8 16.0361 41.4 17.9404 41.4C19.8447 41.4 21.348 42.9 21.2478 44.8ZM17.9404 47.1C19.2433 47.1 20.3458 46 20.3458 44.7C20.3458 43.4 19.1431 42.3 17.9404 42.3C16.7377 42.3 15.6352 43.4 15.535 44.6C15.535 46 16.5372 47.1 17.9404 47.1Z" fill="black"/>
<path d="M27.8628 30V22H22.8516L17.3392 28.9C16.7378 29.5 17.1387 30.6 18.0407 30.6H27.7626L27.8628 30Z" stroke="black" stroke-miterlimit="10"/>
<path d="M20.7465 19.7L12.6283 30.9L7.21612 34.6L5.71274 36.7C4.10914 38.9 2.60576 42.2 4.91094 43.6L6.41432 44.4C6.41432 44.4 6.11364 44.6 8.11814 44.5" stroke="black" stroke-miterlimit="10"/>
<path d="M26.4595 44.3H47.607" stroke="black" stroke-miterlimit="10"/>
<path d="M30.168 35.4H32.5734" stroke="black" stroke-miterlimit="10"/>
<path d="M20.1455 20.5C20.1455 20.5 23.5532 16.3 26.7604 15.4C29.9676 14.5 30.6692 14.5 30.6692 14.5" stroke="black" stroke-miterlimit="10"/>
</svg>
