<svg width="85" height="30" viewBox="0 0 85 30" fill="none" xmlns="http://www.w3.org/2000/svg">
<path d="M28.1563 19.2123C29.3691 19.2123 30.4095 19.2029 31.4517 19.2142C32.4978 19.2255 32.6437 19.378 32.6456 20.3948C32.6475 21.0953 32.638 21.7976 32.6475 22.4981C32.6551 23.1063 32.386 23.434 31.7568 23.4396C31.6204 23.4396 31.4839 23.4396 31.3475 23.4528C30.309 23.5545 29.5548 23.4679 29.0716 22.2157C28.431 20.5549 26.4886 19.8374 24.7243 20.2931C22.9203 20.7582 21.7416 22.4831 21.9007 23.9876C21.9216 24.1891 21.9064 24.3943 21.897 24.5977C21.8704 25.2944 21.6449 25.5392 20.9456 25.5411C18.647 25.5523 16.3483 25.5523 14.0496 25.5411C13.2347 25.5373 13.0187 25.3189 13.0054 24.4734C12.9865 23.3097 12.7761 22.2251 11.9063 21.3645C10.8167 20.2875 9.51857 19.8694 8.03854 20.3157C6.58316 20.7545 5.63943 21.7355 5.31917 23.2476C5.09934 24.2907 5.10503 24.2926 4.02296 24.2907C3.79556 24.2907 3.56815 24.2776 3.34075 24.2889C2.54483 24.3265 1.8683 24.0798 1.53857 23.3323C1.1804 22.5226 1.23915 21.728 1.79061 20.9635C2.0218 20.6415 2.2132 20.1707 2.16961 19.7979C1.95547 18.0166 2.56947 16.5761 3.65722 15.1864C5.05196 13.4032 6.26858 11.4863 7.61974 9.66734C7.88315 9.31333 8.41755 9.16834 8.80603 8.89907C9.48825 8.42267 10.089 8.58461 10.8508 8.8407C11.6069 9.09491 12.5165 8.89531 13.3579 8.90849C14.1747 8.92167 14.3509 9.10432 14.3509 9.92719C14.3547 12.7084 14.3528 15.4896 14.3528 18.2727C14.3528 18.5382 14.3528 18.8037 14.3528 19.1388C17.3394 19.1388 20.2331 19.1388 23.1249 19.1388C23.1306 19.0955 23.1344 19.0503 23.1401 19.007C22.9108 18.9939 22.6834 18.9713 22.4541 18.9713C20.2464 18.9694 18.0387 18.9731 15.8309 18.9675C14.9062 18.9656 14.7034 18.766 14.7034 17.8565C14.6996 13.8758 14.7015 9.89707 14.7034 5.9164C14.7034 4.6981 14.8569 4.53992 16.0716 4.53992C24.6523 4.53804 33.2312 4.53804 41.8119 4.53804C48.9353 4.53804 56.0588 4.53804 63.1822 4.53804C69.2994 4.53804 75.4185 4.53804 81.5357 4.54181C82.9475 4.54181 83.0271 4.62842 83.0271 6.05762C83.0271 11.4166 83.0271 16.7776 83.0271 22.1366C83.0271 23.2551 82.8584 23.4264 81.7233 23.4377C80.9274 23.4472 80.1295 23.4208 79.3336 23.4453C78.8807 23.4603 78.6552 23.3135 78.5036 22.8597C77.9711 21.2704 76.817 20.3289 75.157 20.1745C73.5159 20.022 72.2633 20.7695 71.4162 22.178C71.0807 22.7354 70.9708 22.7297 70.607 22.146C69.108 19.7301 65.9736 19.4514 64.2188 21.583C64.0483 21.792 63.9023 22.0236 63.7697 22.259C63.5177 22.7071 63.2902 22.6845 63.0553 22.2496C62.4981 21.2196 61.6586 20.5417 60.5083 20.2686C58.5849 19.813 56.6311 20.8486 55.9887 22.7147C55.8049 23.2494 55.5623 23.4547 54.9843 23.4528C48.3384 23.4359 41.6944 23.4434 35.0485 23.4396C34.1086 23.4396 33.9399 23.257 33.938 22.323C33.9361 21.3966 33.9323 20.4682 33.938 19.5418C33.9399 19.2462 33.9172 18.9976 33.5192 18.9976C31.8137 18.9995 30.1082 18.992 28.4026 18.992C28.3761 18.9995 28.3439 19.0503 28.1563 19.2123ZM70.9993 21.5962C71.0732 21.566 71.1016 21.5623 71.113 21.5472C73.4325 18.3838 78.0317 19.4156 79.0247 22.5734C79.074 22.7316 79.3867 22.8935 79.5876 22.9048C80.2451 22.9463 80.9103 22.8804 81.566 22.9331C82.2482 22.9896 82.4567 22.7693 82.4529 22.0707C82.4244 16.7117 82.4377 11.3545 82.4377 5.99548C82.4377 5.08223 82.4358 5.08034 81.5016 5.08034C75.2214 5.08034 68.9412 5.08034 62.663 5.08034C47.1673 5.08034 31.6716 5.08411 16.1758 5.06716C15.5183 5.06716 15.2719 5.19521 15.2795 5.9164C15.3174 9.84999 15.3079 13.7855 15.289 17.7191C15.2871 18.2727 15.4462 18.4628 16.0185 18.4572C18.4537 18.4308 20.8888 18.4534 23.322 18.4402C23.8015 18.4384 24.0346 18.5777 24.0364 19.0918C24.0383 19.6077 23.8128 19.7452 23.3296 19.7414C20.4169 19.7263 17.5043 19.7226 14.5916 19.7452C14.0325 19.7489 13.8222 19.5738 13.8317 19.0108C13.8582 17.6098 13.8411 16.207 13.8393 14.8061C13.8393 13.245 13.8393 11.6859 13.8374 10.1249C13.8374 9.77844 13.8563 9.40372 13.3371 9.43008C11.9745 9.49787 10.6139 9.35853 9.24947 9.40184C8.58431 9.42255 8.21668 9.705 7.87178 10.204C6.60969 12.0305 5.38739 13.8871 4.02485 15.6346C3.0527 16.883 2.51641 18.171 2.73812 19.7489C2.8234 20.3571 2.65474 20.8938 2.22078 21.3683C1.7546 21.8767 1.82851 22.5094 2.05023 23.0894C2.26816 23.6562 2.78361 23.7767 3.34833 23.7371C3.50751 23.7258 3.67048 23.7164 3.82588 23.739C4.40955 23.8238 4.67106 23.6411 4.82835 23.0065C5.63943 19.7263 9.49204 18.5231 12.0503 20.73C13.104 21.6414 13.5815 22.8314 13.5379 24.2267C13.5266 24.5883 13.4735 24.9686 14.0496 24.9649C16.3255 24.9517 18.5996 24.9536 20.8755 24.9649C21.264 24.9667 21.3853 24.8048 21.391 24.4376C21.3986 23.8765 21.3607 23.2927 21.5009 22.7599C21.9367 21.1122 23.5002 19.8073 25.0996 19.6623C27.1633 19.4759 28.9105 20.3609 29.6875 22.1196C29.9774 22.7768 30.3356 23.0216 31.0064 22.9199C31.1845 22.8935 31.3702 22.903 31.5522 22.9161C31.9406 22.9444 32.0733 22.758 32.0657 22.3889C32.0506 21.711 32.0373 21.0313 32.0695 20.3553C32.0923 19.8883 31.9463 19.7094 31.4593 19.7207C30.3678 19.7489 29.2743 19.7132 28.1828 19.7358C27.7166 19.7452 27.4494 19.6397 27.4551 19.1087C27.4589 18.621 27.637 18.4271 28.1449 18.4327C30.0342 18.4534 31.9217 18.4534 33.8111 18.4327C34.3398 18.4271 34.4762 18.6568 34.4686 19.1275C34.4516 20.1218 34.4895 21.1179 34.4573 22.1121C34.4364 22.7184 34.6316 22.9312 35.274 22.9293C41.7361 22.9067 48.1982 22.9124 54.6602 22.9256C55.1018 22.9256 55.3387 22.8126 55.5244 22.3814C56.8869 19.2217 60.84 18.638 63.0572 21.2553C63.169 21.389 63.2069 21.583 63.2959 21.7863C65.4771 18.9694 68.981 18.9694 70.9993 21.5962Z" fill="black"/>
<path d="M74.8367 20.4758C76.8132 20.4701 78.3898 22.0142 78.4031 23.9687C78.4183 25.9854 76.8208 27.5973 74.8045 27.6029C72.8791 27.6067 71.2361 25.9854 71.2286 24.0742C71.2191 22.0443 72.7882 20.4795 74.8367 20.4758ZM74.7912 27.0117C76.5043 27.023 77.8952 25.6653 77.8839 23.9932C77.8725 22.3814 76.4418 20.9691 74.8234 20.9729C73.1728 20.9766 71.7819 22.3588 71.7838 23.9932C71.7857 25.6823 73.1008 27.0004 74.7912 27.0117Z" fill="black"/>
<path d="M9.06005 20.4739C11.0821 20.4626 12.6871 22.001 12.7061 23.9668C12.725 25.9346 11.1181 27.5822 9.16238 27.5991C7.20102 27.6161 5.54665 26.0363 5.53717 24.1344C5.5258 22.0368 7.01909 20.4852 9.06005 20.4739ZM9.10363 27.0135C10.794 27.0305 12.1243 25.718 12.1319 24.0309C12.1376 22.3493 10.8016 20.9804 9.14722 20.9729C7.47769 20.9653 6.04694 22.3757 6.04883 24.0233C6.05073 25.6653 7.41137 26.9966 9.10363 27.0135Z" fill="black"/>
<path d="M67.2525 20.4758C69.2556 20.4852 70.7886 22.0029 70.7962 23.9819C70.8038 25.993 69.176 27.6236 67.1843 27.601C65.2438 27.5803 63.5781 25.8969 63.6008 23.98C63.6255 22.0104 65.2343 20.4664 67.2525 20.4758ZM67.1957 27.0154C68.8955 27.0211 70.2542 25.7124 70.2675 24.0554C70.2808 22.3889 68.8728 20.9691 67.2089 20.9729C65.5679 20.9767 64.1921 22.3588 64.1883 24.0064C64.1864 25.6917 65.5034 27.0079 67.1957 27.0154Z" fill="black"/>
<path d="M59.6102 20.4758C61.6171 20.4758 63.2393 22.0556 63.2317 24.0064C63.2241 25.9572 61.5868 27.5954 59.6349 27.601C57.6204 27.6067 56.0418 26.0024 56.0513 23.9593C56.0589 21.9916 57.6072 20.4758 59.6102 20.4758ZM59.6216 27.0135C61.3309 27.0154 62.6347 25.7256 62.6385 24.0252C62.6442 22.3512 61.3215 21.003 59.6462 20.9729C58.007 20.9428 56.5535 22.3851 56.5592 24.0346C56.5649 25.6841 57.9293 27.0117 59.6216 27.0135Z" fill="black"/>
<path d="M25.7495 20.4739C27.7298 20.4795 29.3008 22.0255 29.3065 23.9763C29.3141 25.976 27.6692 27.6218 25.6888 27.5992C23.7407 27.5766 22.1565 25.9892 22.147 24.0535C22.1375 21.9953 23.6725 20.4701 25.7495 20.4739ZM25.7116 27.0154C27.4095 27.0173 28.7418 25.7124 28.7569 24.0365C28.7702 22.3682 27.3527 20.954 25.6888 20.9729C24.0458 20.9917 22.6757 22.3814 22.6795 24.0252C22.6833 25.6973 24.0193 27.0135 25.7116 27.0154Z" fill="black"/>
<path d="M12.7096 12.9362C12.7096 13.3882 12.6963 13.8401 12.7115 14.2901C12.7323 14.887 12.4121 15.1977 11.8796 15.371C10.5284 15.8097 9.2 16.3426 7.82231 16.6646C6.89185 16.883 5.89127 16.8567 4.92291 16.8472C4.41504 16.8416 4.30702 16.3972 4.6595 15.885C5.42888 14.7684 6.20584 13.6555 6.99986 12.5559C8.67128 10.2454 7.89622 10.5975 10.8203 10.5618C12.7494 10.5392 12.7437 10.5185 12.7096 12.4598C12.7077 12.6199 12.7096 12.7781 12.7096 12.9362ZM5.1162 16.3351C6.02582 16.2805 6.835 16.352 7.57595 16.1618C8.94796 15.8078 10.2764 15.2881 11.6313 14.8625C11.9895 14.7496 12.1619 14.5726 12.1563 14.1978C12.1449 13.3411 12.1392 12.4843 12.1525 11.6275C12.16 11.1737 11.9307 11.0513 11.5176 11.0626C10.8146 11.0815 10.102 11.0043 9.41035 11.0909C9.03324 11.138 8.57085 11.3507 8.35102 11.6407C7.34097 12.972 6.40293 14.356 5.44404 15.725C5.3455 15.8643 5.28107 16.0262 5.1162 16.3351Z" fill="black"/>
<path d="M76.7565 24.0648C76.7414 25.108 75.8128 25.9854 74.7592 25.9553C73.7605 25.9271 72.8661 25.0006 72.8756 24.0045C72.8869 22.95 73.7738 22.0989 74.8539 22.1102C75.9341 22.1196 76.7717 22.9821 76.7565 24.0648ZM76.1729 24.0121C76.171 23.2268 75.5721 22.6262 74.8047 22.6393C74.0277 22.6525 73.4535 23.2589 73.4668 24.0459C73.4801 24.7954 74.0542 25.3641 74.8028 25.3716C75.5854 25.3791 76.1748 24.7954 76.1729 24.0121Z" fill="black"/>
<path d="M9.11118 22.1083C10.1876 22.1065 11.0688 22.9783 11.0593 24.0347C11.0498 25.0364 10.161 25.9309 9.14529 25.9591C8.10303 25.9892 7.18773 25.0929 7.17825 24.0365C7.17257 22.9595 8.02344 22.1102 9.11118 22.1083ZM10.4699 24.0215C10.4775 23.2513 9.86351 22.6318 9.1036 22.6394C8.36644 22.6469 7.76003 23.2344 7.73539 23.9669C7.71076 24.7238 8.31906 25.3565 9.08276 25.3697C9.86541 25.3829 10.4623 24.8029 10.4699 24.0215Z" fill="black"/>
<path d="M67.2282 22.1065C68.3254 22.1121 69.1421 22.95 69.1289 24.0572C69.1156 25.0967 68.2534 25.9553 67.2187 25.9591C66.1783 25.9628 65.2838 25.0345 65.3066 23.9782C65.3293 22.9124 66.1612 22.1027 67.2282 22.1065ZM67.1846 25.3697C67.971 25.3829 68.5964 24.7973 68.6153 24.0346C68.6324 23.3078 67.9786 22.6544 67.2225 22.6431C66.5061 22.6318 65.8694 23.2381 65.8391 23.9612C65.8069 24.7238 66.4152 25.3584 67.1846 25.3697Z" fill="black"/>
<path d="M59.6157 22.1083C60.6978 22.1083 61.5846 22.9783 61.5695 24.029C61.5562 25.0308 60.6542 25.9422 59.6593 25.9553C58.5659 25.9704 57.6904 25.0854 57.7018 23.9706C57.7131 22.9237 58.5526 22.1083 59.6157 22.1083ZM59.5721 25.3697C60.3263 25.3961 60.9479 24.8444 60.9858 24.1137C61.0294 23.3078 60.423 22.6469 59.6328 22.6393C58.9165 22.6318 58.2722 23.2344 58.2343 23.9518C58.1945 24.705 58.7952 25.3434 59.5721 25.3697Z" fill="black"/>
<path d="M23.8072 23.9838C23.8167 22.9199 24.6448 22.1065 25.7174 22.1083C26.8222 22.1083 27.6428 22.9444 27.6257 24.0497C27.6105 25.091 26.7426 25.9591 25.7174 25.961C24.6694 25.961 23.7977 25.059 23.8072 23.9838ZM25.6833 22.6544C24.9291 22.6714 24.2961 23.3285 24.3264 24.0667C24.3568 24.7973 24.967 25.3716 25.7136 25.3697C26.4887 25.3678 27.1178 24.7521 27.1084 24.0008C27.0989 23.2589 26.4413 22.6375 25.6833 22.6544Z" fill="black"/>
</svg>
