<svg width="77" height="36" viewBox="0 0 77 36" fill="none" xmlns="http://www.w3.org/2000/svg">
<path d="M76.8923 1.22946C76.8949 0.314508 76.5235 0.168764 75.7515 0.171463C64.2505 0.187657 31.4959 0.193055 19.9949 0.166065C19.0717 0.163366 18.7984 0.452156 18.8037 1.386C18.8382 7.54505 18.8223 16.3368 18.8249 22.4931C18.8249 22.8413 18.8249 23.1894 18.8249 23.5349C18.7135 23.543 18.6021 23.5484 18.4907 23.5565C18.4615 23.1598 18.4058 22.7657 18.4058 22.369C18.4005 18.415 18.4084 14.461 18.3978 10.5043C18.3951 9.25466 18.1458 8.99825 16.9519 8.99016C14.9117 8.97666 12.8741 9.00365 10.8339 8.98206C10.0221 8.97396 9.46497 9.31134 9.00599 9.98608C7.19661 12.65 5.4456 15.3651 3.4903 17.9184C1.94622 19.9345 1.03623 22.0181 1.38378 24.6091C1.4448 25.0706 1.29623 25.7022 1.00439 26.0477C0.0439862 27.1785 0.00419037 28.4335 0.487046 29.6805C1.01235 31.0327 2.27785 31.0623 3.4903 31.0435C3.52214 31.0435 3.55397 31.0435 3.58581 31.0435C5.36866 31.0596 5.36866 31.0596 5.77988 29.3566C5.7958 29.2945 5.82764 29.2351 5.84621 29.1758C6.56784 26.6765 8.82028 24.9816 11.2611 25.1003C13.9194 25.2299 16.0366 27.1677 16.4611 30.0286C16.5831 30.8518 16.8909 31.0462 17.6098 31.0462C22.0696 31.0354 26.5321 31.065 30.9918 31.03C31.4084 31.0273 32.0159 30.7843 32.1937 30.4605C32.4855 29.9234 32.8278 29.8154 33.3371 29.8343C33.8147 29.8505 34.2949 29.8019 34.7698 29.8424C34.7777 29.8424 34.7831 29.8424 34.7884 29.8451C34.6159 29.613 34.4726 29.3647 34.3612 29.1002C34.332 29.0975 34.3055 29.0975 34.2763 29.0921C33.7404 29.0354 33.1939 29.0921 32.6526 29.0786C32.1141 29.0678 31.6339 29.0597 31.5729 29.8262C31.5596 29.9855 31.1139 30.2311 30.8645 30.2311C26.5639 30.2553 22.2633 30.2446 17.96 30.2553C17.4533 30.2553 17.2729 30.0637 17.1641 29.5428C16.5115 26.412 14.1901 24.4229 11.216 24.377C8.07743 24.3311 5.7958 26.1772 5.0105 29.4457C4.86458 30.0556 4.61254 30.339 3.98111 30.2553C3.63622 30.2095 3.28071 30.2284 2.93051 30.2526C2.16377 30.3012 1.50582 30.0745 1.17949 29.3431C0.82133 28.5442 0.747045 27.6562 1.35725 26.9626C2.01255 26.2177 2.17704 25.3972 2.13459 24.4553C2.10275 23.7751 2.05765 23.0842 2.15316 22.4175C2.24867 21.7671 2.38132 21.0465 2.73153 20.5229C4.9707 17.1761 7.25498 13.8591 9.58701 10.5799C9.88681 10.1588 10.5474 9.80255 11.0568 9.77556C12.9325 9.68109 14.8162 9.76476 16.6945 9.72428C17.448 9.70808 17.6868 9.97258 17.6815 10.7337C17.6549 14.9468 17.6762 19.1599 17.6603 23.3757C17.6576 24.0774 17.716 24.5281 18.61 24.5416C19.5572 24.5578 19.6341 24.0666 19.6315 23.3271C19.6156 17.168 19.6129 8.37903 19.6129 2.21998C19.6129 0.932573 19.6235 0.927175 20.8758 0.927175C26.3251 0.924476 31.7718 0.927175 37.2212 0.927175C42.7342 0.929874 69.4956 0.946068 75.006 0.910981C75.8841 0.905583 76.1998 1.21057 76.1945 2.07694C76.16 8.91343 76.1441 18.3826 76.1229 25.2164C76.1176 26.7305 76.1176 26.7305 74.5947 26.7359C73.8625 26.7386 73.1276 26.7656 72.398 26.7305C71.7241 26.6981 71.4297 26.9167 71.4084 27.6616C71.4005 27.9504 71.5092 28.2041 71.419 28.4821C71.4482 28.5361 71.4748 28.5901 71.5013 28.6468C71.9735 28.5199 72.2415 28.3796 72.2441 28.2257C72.2627 27.6158 72.4988 27.4376 73.048 27.4538C73.8439 27.4781 74.6399 27.4592 75.4384 27.4592C76.8737 27.4565 76.8737 27.4565 76.8737 26.0369C76.8764 18.6417 76.8605 8.61924 76.8923 1.22946Z" fill="black"/>
<path d="M46.292 30.6845C46.2867 33.5076 44.0156 35.8044 41.2512 35.7801C38.5132 35.7558 36.2395 33.4077 36.2422 30.6035C36.2448 27.802 38.5159 25.5537 41.3308 25.5645C44.1695 25.5753 46.2946 27.7669 46.292 30.6845ZM41.2565 34.9435C43.6389 34.957 45.5359 33.0947 45.573 30.7088C45.6101 28.3472 43.5938 26.2609 41.2936 26.2825C38.951 26.3041 37.0726 28.2311 37.062 30.6224C37.0487 33.0434 38.882 34.93 41.2565 34.9435Z" fill="black"/>
<path d="M11.086 25.5645C13.9619 25.5672 16.0791 27.7777 16.0658 30.7574C16.0525 33.5319 13.8134 35.7774 11.0568 35.7801C8.33745 35.7828 6.01073 33.405 6.02134 30.6305C6.03195 27.8074 8.27643 25.5618 11.086 25.5645ZM11.0436 34.9408C13.4101 34.9435 15.3176 33.065 15.3548 30.6926C15.3919 28.3553 13.3703 26.2825 11.0542 26.2852C8.73276 26.2879 6.83052 28.2473 6.83848 30.6332C6.85174 33.0785 8.66643 34.9381 11.0436 34.9408Z" fill="black"/>
<path d="M16.0711 14.774C16.0711 15.4542 16.0499 16.1343 16.0764 16.8118C16.1056 17.5918 15.697 17.9966 15.0231 18.2206C13.0732 18.8738 11.1523 19.6592 9.16256 20.1423C7.89175 20.4527 6.51747 20.3852 5.19094 20.3609C4.52768 20.3501 4.32605 19.7644 4.73196 19.1653C6.31583 16.8199 7.8944 14.4691 9.55786 12.1803C9.86296 11.7593 10.5421 11.4489 11.0754 11.4003C12.3383 11.287 13.617 11.3706 14.8905 11.3626C15.6784 11.3572 16.0684 11.7431 16.0738 12.5393C16.0764 13.2842 16.0738 14.0291 16.0711 14.774ZM5.38461 19.6349C6.76155 19.5566 7.89971 19.6673 8.93705 19.3947C10.8605 18.8846 12.7176 18.1289 14.6172 17.5216C15.1717 17.3435 15.3787 17.0412 15.368 16.4744C15.3468 15.3111 15.3415 14.1452 15.3707 12.9819C15.3866 12.3018 15.0974 12.0616 14.4554 12.0805C13.5029 12.1075 12.5452 12.1156 11.5928 12.0778C10.8074 12.0454 10.2901 12.372 9.85765 13.0305C8.78052 14.6715 7.65297 16.2747 6.54665 17.8941C6.21237 18.3826 5.88604 18.8819 5.38461 19.6349Z" fill="black"/>
<path d="M41.2644 27.9072C42.8191 27.8991 43.9811 29.0786 43.9732 30.6602C43.9652 32.1635 42.7687 33.4158 41.3281 33.4239C39.853 33.432 38.5636 32.1149 38.5875 30.6251C38.6114 29.0975 39.776 27.9153 41.2644 27.9072ZM41.2246 32.5846C42.3097 32.6142 43.2091 31.7695 43.2436 30.6899C43.2754 29.6427 42.3601 28.6872 41.3175 28.6764C40.2854 28.6683 39.4232 29.4942 39.3728 30.5441C39.3197 31.6372 40.1528 32.5549 41.2246 32.5846Z" fill="black"/>
<path d="M64.4999 30.6845C64.4945 33.5076 62.2235 35.8044 59.459 35.7801C56.7211 35.7558 54.4474 33.4077 54.4501 30.6035C54.4527 27.802 56.7237 25.5537 59.5386 25.5645C62.3774 25.5753 64.5025 27.7669 64.4999 30.6845ZM59.4644 34.9435C61.8468 34.957 63.7437 33.0947 63.7809 30.7088C63.818 28.3472 61.8017 26.2609 59.5015 26.2825C57.1588 26.3041 55.2805 28.2311 55.2699 30.6224C55.2566 33.0434 57.0899 34.93 59.4644 34.9435Z" fill="black"/>
<path d="M53.4765 29.7857C53.5295 29.7884 53.5826 29.7911 53.6357 29.7938C54.0575 26.8061 56.5513 24.5173 59.5944 24.4903C62.5499 24.4633 65.1764 26.8789 65.6194 29.8235H66.6541C66.2429 26.1475 63.3776 23.4863 59.6421 23.4728C55.9385 23.4593 52.8955 26.1988 52.4577 29.7641C52.7973 29.7506 53.1369 29.7668 53.4765 29.7857Z" fill="black"/>
<path d="M35.2686 29.7857C35.3216 29.7884 35.3747 29.7911 35.4278 29.7938C35.8496 26.8061 38.3435 24.5173 41.3865 24.4903C44.342 24.4633 46.9686 26.8789 47.4116 29.8235H48.4463C48.0351 26.1475 45.1698 23.4863 41.4343 23.4728C37.7306 23.4593 34.6876 26.1988 34.2498 29.7641C34.5894 29.7506 34.929 29.7668 35.2686 29.7857Z" fill="black"/>
<path d="M59.4697 27.9072C61.0244 27.8991 62.1864 29.0786 62.1785 30.6602C62.1705 32.1635 60.974 33.4158 59.5334 33.4239C58.0583 33.432 56.7689 32.1149 56.7927 30.6251C56.8193 29.0975 57.984 27.9153 59.4697 27.9072ZM59.4326 32.5846C60.5177 32.6142 61.4171 31.7695 61.4515 30.6899C61.4834 29.6427 60.5681 28.6872 59.5254 28.6764C58.4934 28.6683 57.6311 29.4942 57.5807 30.5441C57.5276 31.6372 58.3607 32.5549 59.4326 32.5846Z" fill="black"/>
<path d="M13.7576 30.6845C13.7417 32.1716 12.5478 33.4023 11.1019 33.4239C9.66397 33.4428 8.32948 32.1068 8.33744 30.6548C8.3454 29.1353 9.57642 27.9045 11.086 27.9072C12.6062 27.9099 13.7736 29.1245 13.7576 30.6845ZM11.0383 32.5872C12.1048 32.6034 13.0015 31.7236 13.0148 30.6494C13.0254 29.6184 12.0703 28.6441 11.0621 28.6576C10.0619 28.6711 9.18642 29.5563 9.15989 30.5792C9.1307 31.6939 9.95315 32.5711 11.0383 32.5872Z" fill="black"/>
<path d="M53.6382 29.2567H47.2577V29.9584H53.6382V29.2567Z" fill="black"/>
<path d="M72.2654 29.1326H65.5718V29.8208H72.2654V29.1326Z" fill="black"/>
<path d="M72.2653 27.2298H71.48V29.8478H72.2653V27.2298Z" fill="black"/>
</svg>
