<svg width="83" height="35" viewBox="0 0 83 35" fill="none" xmlns="http://www.w3.org/2000/svg">
<path d="M82.3705 1.10784C82.3731 0.214162 82.011 0.0718076 81.2584 0.0744438C70.0474 0.090261 31.1725 0.0955331 19.9614 0.0691711C19.0615 0.0665349 18.7951 0.348609 18.8003 1.26074C18.8339 7.27655 18.8184 15.8638 18.8209 21.877C18.8209 22.2171 18.8209 22.5571 18.8209 22.8946C18.7123 22.9025 18.6037 22.9077 18.4951 22.9156C18.4666 22.5281 18.4123 22.1432 18.4123 21.7557C18.4072 17.8937 18.4149 14.0316 18.4046 10.167C18.402 8.9464 18.1589 8.69596 16.9951 8.68805C15.0063 8.67487 13.0202 8.70123 11.0314 8.68014C10.24 8.67223 9.69694 9.00176 9.24953 9.66081C7.48576 12.2627 5.77889 14.9148 3.87289 17.4086C2.36774 19.3779 1.48068 21.413 1.81947 23.9438C1.87895 24.3946 1.73413 25.0114 1.44965 25.3489C0.513457 26.4534 0.474665 27.6793 0.945347 28.8972C1.45741 30.2179 2.69101 30.2469 3.87289 30.2285C3.90392 30.2285 3.93496 30.2285 3.96599 30.2285C5.7039 30.2443 5.7039 30.2443 6.10475 28.5808C6.12027 28.5202 6.1513 28.4622 6.16941 28.4042C6.87284 25.9631 9.0685 24.3076 11.4478 24.4236C14.0391 24.5501 16.1029 26.4429 16.5167 29.2373C16.6356 30.0413 16.9356 30.2311 17.6365 30.2311C21.9838 30.2206 33.2799 30.2496 37.6272 30.2153C38.0332 30.2127 38.6255 29.9754 38.7987 29.6591C39.0832 29.1345 39.4168 29.029 39.9134 29.0475C40.3789 29.0633 40.847 29.0158 41.3099 29.0554C41.3177 29.0554 41.8153 29.0369 41.8204 29.0395C41.6523 28.8128 42.1677 28.2 40.9116 28.3304C41.8204 27.85 41.5474 28.3986 40.8289 28.3225C40.3065 28.2671 39.7737 28.3225 39.2462 28.3093C38.7212 28.2988 38.2531 28.2909 38.1936 29.0395C38.1807 29.1951 37.7462 29.435 37.5031 29.435C33.3109 29.4587 22.1726 29.4482 17.9778 29.4587C17.4839 29.4587 17.308 29.2715 17.202 28.7627C16.5658 25.7048 14.3029 23.7619 11.4038 23.7171C8.34437 23.6722 6.12027 25.4754 5.35476 28.6678C5.21252 29.2636 4.96684 29.5404 4.35133 29.4587C4.01513 29.4139 3.66858 29.4323 3.32721 29.4561C2.57981 29.5035 1.93844 29.2821 1.62034 28.5677C1.2712 27.7873 1.19879 26.92 1.79361 26.2425C2.43239 25.5149 2.59274 24.7135 2.55136 23.7935C2.52032 23.1292 2.47636 22.4543 2.56946 21.8032C2.66256 21.1678 2.79187 20.464 3.13324 19.9526C5.31597 16.6837 7.54266 13.4438 9.8159 10.2408C10.1081 9.82953 10.7521 9.48155 11.2486 9.45519C13.0771 9.36292 14.9132 9.44464 16.7442 9.4051C17.4787 9.38928 17.7115 9.64763 17.7063 10.391C17.6804 14.5062 17.7011 18.6213 17.6856 22.739C17.683 23.4244 17.7399 23.8647 18.6115 23.8779C19.5347 23.8937 19.6097 23.4139 19.6071 22.6916C19.5916 16.6758 19.589 8.09114 19.589 2.07532C19.589 0.817853 19.5994 0.812581 20.82 0.812581C26.132 0.809945 38.3875 0.812581 43.6995 0.812581C49.0736 0.815217 75.1603 0.831034 80.5317 0.796764C81.3878 0.791491 81.6955 1.08938 81.6903 1.9356C81.6567 8.61311 81.6412 17.862 81.6205 24.5369C81.6153 26.0158 81.6153 26.0158 80.1309 26.0211C79.4171 26.0237 78.7007 26.0501 77.9895 26.0158C77.3326 25.9842 77.0456 26.1977 77.0249 26.9253C77.0171 27.2074 77.1232 27.4552 77.0352 27.7267C77.0637 27.7794 77.0895 27.8322 77.1154 27.8875C77.5758 27.7636 77.8369 27.6265 77.8395 27.4763C77.8576 26.8805 78.0878 26.7065 78.6231 26.7223C79.399 26.746 80.1749 26.7276 80.9533 26.7276C82.3524 26.725 82.3524 26.725 82.3524 25.3383C82.355 18.1151 82.3395 8.32576 82.3705 1.10784Z" fill="black"/>
<path d="M52.8643 29.8779C52.8591 32.6353 50.6454 34.8787 47.9506 34.855C45.2816 34.8313 43.0653 32.5378 43.0679 29.7988C43.0705 27.0624 45.2842 24.8664 48.0282 24.877C50.7954 24.8875 52.8669 27.0281 52.8643 29.8779ZM47.9558 34.0378C50.2781 34.051 52.1273 32.232 52.1635 29.9016C52.1997 27.5949 50.2342 25.5571 47.992 25.5782C45.7084 25.5993 43.8773 27.4815 43.867 29.8172C43.8541 32.1819 45.6411 34.0246 47.9558 34.0378Z" fill="black"/>
<path d="M11.2769 24.877C14.0803 24.8796 16.144 27.0387 16.1311 29.949C16.1182 32.659 13.9355 34.8524 11.2484 34.855C8.59761 34.8576 6.32953 32.5351 6.33988 29.8251C6.35022 27.0677 8.53812 24.8743 11.2769 24.877ZM11.2355 34.0351C13.5424 34.0378 15.4018 32.203 15.438 29.8858C15.4742 27.6028 13.5036 25.5782 11.2458 25.5808C8.98294 25.5835 7.12866 27.4974 7.13642 29.8278C7.14935 32.2162 8.91829 34.0325 11.2355 34.0351Z" fill="black"/>
<path d="M16.1366 14.3374C16.1366 15.0018 16.1159 15.6661 16.1418 16.3278C16.1702 17.0896 15.772 17.4851 15.1151 17.7039C13.2142 18.3418 11.3418 19.109 9.40222 19.5808C8.16344 19.884 6.82381 19.8181 5.53073 19.7944C4.88418 19.7838 4.68763 19.2118 5.08332 18.6265C6.62726 16.3357 8.16603 14.0395 9.78756 11.804C10.085 11.3928 10.747 11.0896 11.2668 11.0422C12.4979 10.9315 13.7444 11.0132 14.9858 11.0053C15.7538 11 16.134 11.377 16.1392 12.1547C16.1418 12.8822 16.1392 13.6098 16.1366 14.3374ZM5.71952 19.0852C7.06174 19.0088 8.1712 19.1169 9.18239 18.8506C11.0574 18.3524 12.8677 17.6142 14.7194 17.0211C15.2599 16.8471 15.4616 16.5518 15.4513 15.9982C15.4306 14.862 15.4254 13.7232 15.4539 12.587C15.4694 11.9227 15.1875 11.688 14.5616 11.7065C13.6332 11.7329 12.6996 11.7408 11.7711 11.7039C11.0056 11.6722 10.5013 11.9912 10.0798 12.6344C9.02981 14.2373 7.93069 15.8032 6.85226 17.3849C6.5264 17.862 6.2083 18.3497 5.71952 19.0852Z" fill="black"/>
<path d="M47.9638 27.1652C49.4792 27.1573 50.612 28.3093 50.6042 29.8541C50.5965 31.3225 49.4301 32.5457 48.0258 32.5536C46.5879 32.5615 45.331 31.275 45.3543 29.8199C45.3776 28.3278 46.5129 27.1731 47.9638 27.1652ZM47.925 31.7337C48.9827 31.7627 49.8594 30.9376 49.893 29.8831C49.9241 28.8603 49.0318 27.9271 48.0155 27.9165C47.0095 27.9086 46.169 28.7153 46.1198 29.7408C46.0681 30.8084 46.8802 31.7047 47.925 31.7337Z" fill="black"/>
<path d="M70.6133 29.8779C70.6081 32.6353 68.3944 34.8787 65.6996 34.855C63.0307 34.8313 60.8143 32.5378 60.8169 29.7988C60.8195 27.0624 63.0332 24.8664 65.7772 24.877C68.5444 24.8875 70.6159 27.0281 70.6133 29.8779ZM65.7048 34.0378C68.0271 34.051 69.8763 32.232 69.9125 29.9016C69.9487 27.5949 67.9832 25.5571 65.741 25.5782C63.4574 25.5993 61.6264 27.4815 61.616 29.8172C61.6031 32.1819 63.3901 34.0246 65.7048 34.0378Z" fill="black"/>
<path d="M59.8676 29C59.9193 29.0026 59.971 29.0053 60.0228 29.0079C60.434 26.0896 62.865 23.8541 65.8313 23.8278C68.7123 23.8014 71.2726 26.1608 71.7044 29.0369H72.7131C72.3122 25.4464 69.5191 22.8471 65.8778 22.8339C62.2676 22.8207 59.3012 25.4965 58.8745 28.9789C59.2055 28.9657 59.5366 28.9816 59.8676 29Z" fill="black"/>
<path d="M42.1191 29C42.1708 29.0026 42.2225 29.0053 42.2742 29.0079C42.6854 26.0896 45.1164 23.8541 48.0828 23.8278C50.9638 23.8014 53.5241 26.1608 53.956 29.0369H54.9646C54.5637 25.4464 51.7706 22.8471 48.1293 22.8339C44.519 22.8207 41.5527 25.4965 41.126 28.9789C41.457 28.9657 41.788 28.9816 42.1191 29Z" fill="black"/>
<path d="M65.7099 27.1652C67.2254 27.1573 68.3581 28.3093 68.3504 29.8541C68.3426 31.3225 67.1763 32.5457 65.772 32.5536C64.334 32.5615 63.0771 31.275 63.1004 29.8199C63.1263 28.3278 64.2616 27.1731 65.7099 27.1652ZM65.6737 31.7337C66.7314 31.7627 67.6082 30.9376 67.6418 29.8831C67.6728 28.8603 66.7806 27.9271 65.7642 27.9165C64.7582 27.9086 63.9177 28.7153 63.8685 29.7408C63.8168 30.8084 64.6289 31.7047 65.6737 31.7337Z" fill="black"/>
<path d="M13.8813 29.8779C13.8657 31.3304 12.702 32.5325 11.2925 32.5536C9.89078 32.5721 8.58993 31.2671 8.59769 29.8489C8.60545 28.3647 9.80544 27.1626 11.277 27.1652C12.7589 27.1678 13.8968 28.3541 13.8813 29.8779ZM11.2304 31.7364C12.2701 31.7522 13.1442 30.8928 13.1571 29.8436C13.1675 28.8366 12.2364 27.8849 11.2537 27.8981C10.2787 27.9113 9.42527 28.7759 9.39941 29.775C9.37096 30.8638 10.1727 31.7206 11.2304 31.7364Z" fill="black"/>
<path d="M60.0254 28.4833H53.8057V29.1687H60.0254V28.4833Z" fill="black"/>
<path d="M78.1831 28.362H71.6582V29.0343H78.1831V28.362Z" fill="black"/>
<path d="M78.183 26.5035H77.4175V29.0606H78.183V26.5035Z" fill="black"/>
</svg>
