<svg width="144" height="36" viewBox="0 0 144 36" fill="none" xmlns="http://www.w3.org/2000/svg">
<path d="M22.8996 9.14803C24.0246 9.14803 24.9 9.13483 25.772 9.15132C27.1533 9.17771 27.6525 9.66258 27.6559 11.0215C27.6658 13.8747 27.6891 16.7246 27.6425 19.5777C27.6292 20.4749 27.8456 20.8377 28.8308 20.8146C31.7464 20.7487 34.6654 20.7784 37.5843 20.7652C37.8539 20.7652 38.1202 20.7157 38.3865 20.4683C36.4028 20.4683 34.4157 20.4716 32.432 20.4683C30.6447 20.465 30.262 20.0923 30.262 18.3078C30.2553 13.1326 30.2586 7.95729 30.262 2.78532C30.262 2.46867 30.1688 2.06626 30.3252 1.85515C30.668 1.39337 31.1074 0.746875 31.5733 0.684205C32.3322 0.585251 32.7316 1.23834 32.7316 2.02338C32.7316 3.76496 32.8048 5.51314 32.7116 7.25142C32.6484 8.42897 33.0844 8.69944 34.2127 8.69944C60.0307 8.66975 85.8487 8.67635 111.667 8.67635C121.579 8.67635 131.49 8.67635 141.402 8.67635C143.106 8.67635 143.519 9.08865 143.522 10.7676C143.526 13.502 143.526 16.2331 143.516 18.9675C143.509 20.5178 143.1 20.9004 141.519 20.9202C139.166 20.9499 139.485 20.6497 139.459 22.9289C139.445 24.156 139.445 25.3863 139.459 26.6133C139.468 27.4676 139.156 28.0877 138.254 28.2625C136.703 28.5627 135.974 28.2922 135.611 27.2697C134.666 24.6013 132.815 22.9388 129.979 22.5991C126.941 22.2363 124.621 23.4666 123.086 26.112C122.97 26.3165 122.84 26.5144 122.7 26.7024C122.66 26.7552 122.564 26.7716 122.327 26.8838C120.886 24.433 118.992 22.5397 115.821 22.5364C112.645 22.5331 110.652 24.2747 109.134 27.0751C108.778 26.5737 108.528 26.2505 108.312 25.9074C106.744 23.4105 104.474 22.2495 101.535 22.5925C98.8393 22.9092 96.9488 24.4297 96.0668 26.9531C95.6707 28.091 95.0783 28.4308 93.9866 28.2922C93.6338 28.246 93.2676 28.2856 92.9082 28.2856C91.1841 28.2757 90.8446 28.0119 90.8879 26.3C90.9145 25.2313 90.5118 24.9608 89.49 24.9641C80.4169 24.9938 71.3438 24.9806 62.2707 24.9773C60.2138 24.9773 59.9775 24.7167 59.9575 22.6321C59.9342 20.1253 60.307 20.4617 57.7175 20.4485C54.286 20.4287 50.8545 20.4452 47.4063 20.7124C47.7458 20.7322 48.0819 20.7652 48.4214 20.7652C50.059 20.7718 51.6999 20.7487 53.3374 20.7784C54.5256 20.8014 55.0116 21.2929 55.0282 22.4474C55.0515 23.8723 55.0382 25.3005 55.0282 26.7255C55.0216 27.7348 54.509 28.2625 53.4772 28.2757C53.1976 28.279 52.9147 28.2526 52.6385 28.2823C50.8312 28.4835 49.5864 28.2362 48.7909 26.1251C47.7391 23.3314 44.291 21.9757 41.382 22.642C38.3465 23.3347 36.2197 25.9437 36.1631 29.0443C36.1132 31.8612 36.1132 31.8579 33.3074 31.8579C29.8293 31.8546 26.3545 31.8579 22.8763 31.8579C20.673 31.8579 20.5631 31.7556 20.5299 29.5984C20.4866 26.6958 19.2751 24.466 16.6124 23.1664C12.655 21.2434 7.90209 23.615 7.04005 27.903C6.67393 29.7139 6.67393 29.7139 4.79674 29.7172C4.39734 29.7172 3.99461 29.6941 3.59853 29.7205C2.20062 29.8194 1.01573 29.417 0.4133 28.1075C-0.235729 26.6925 -0.13255 25.3038 0.809374 23.9548C1.20878 23.3808 1.56491 22.5694 1.49169 21.913C1.14221 18.7564 2.20728 16.1935 4.16435 13.7296C6.55744 10.7181 8.65763 7.47571 10.861 4.3191C11.4801 3.43181 12.1557 2.72265 13.3506 2.71935C13.5902 2.71935 13.8765 2.54453 14.0562 2.36312C14.6653 1.7529 15.1978 1.82217 15.8236 2.36641C16.0832 2.59401 16.5192 2.71275 16.8787 2.72265C18.2366 2.76223 19.5946 2.73254 20.9559 2.74244C22.4736 2.75233 22.8863 3.14815 22.893 4.61925C22.9063 6.15303 22.8996 7.69011 22.8996 9.14803ZM31.6865 1.81227C31.5767 1.81557 31.4635 1.81887 31.3537 1.82217C31.327 2.13222 31.2804 2.44228 31.2804 2.75233C31.2771 7.94079 31.2971 13.1293 31.2605 18.3144C31.2538 19.1951 31.5434 19.5184 32.4121 19.5085C34.5289 19.4887 36.6491 19.5381 38.7659 19.5217C39.6812 19.5151 39.9408 19.9537 39.8975 20.7784C39.8476 21.7877 39.1353 21.7349 38.4464 21.7349C34.1295 21.7415 29.8126 21.7613 25.4958 21.7283C24.9233 21.725 24.3508 21.4315 23.7783 21.2731C24.3142 21.095 24.8401 20.8509 25.3892 20.752C25.9817 20.6431 26.6207 20.7388 26.6141 19.8383C26.5974 16.8664 26.6207 13.8945 26.5841 10.9259C26.5808 10.662 26.3012 10.2497 26.0582 10.1672C24.4507 9.6197 23.6219 10.2068 23.5953 11.8626C23.5853 12.4828 23.6219 13.0996 22.7099 13.0732C21.8046 13.0435 22.001 12.3673 21.9977 11.8561C21.9777 9.55703 21.981 7.26131 21.9877 4.96229C21.991 4.26632 21.9178 3.70558 20.9725 3.74187C19.6944 3.78805 18.413 3.71878 17.1349 3.75836C15.9201 3.79794 14.7019 3.18773 13.497 3.75176C12.9212 4.01894 12.1824 4.21025 11.8462 4.67203C9.40651 8.00346 7.17651 11.4932 4.62699 14.7356C2.94618 16.873 2.1507 19.083 2.48686 21.7415C2.62665 22.8531 2.14071 23.7404 1.58821 24.7101C1.14221 25.4918 1.11558 26.6727 1.29864 27.5996C1.50167 28.632 2.55676 28.7903 3.53197 28.7705C3.93137 28.7639 4.33077 28.7507 4.73017 28.7705C5.51233 28.8134 5.86181 28.5594 6.06817 27.7018C7.28302 22.7146 12.4553 20.1187 16.9386 22.266C19.9441 23.7074 21.4585 26.1647 21.4585 29.5028C21.4585 30.2086 21.3054 30.9772 22.4536 30.9706C26.3711 30.9508 30.2886 30.9574 34.2061 30.9706C34.9583 30.9739 35.2678 30.6737 35.2578 29.8986C35.2445 28.9552 35.2012 27.9723 35.4409 27.0784C36.273 23.9746 39.2185 21.7019 42.4604 21.5271C45.6223 21.3556 48.7809 23.272 49.9724 26.2241C50.3186 27.0817 50.7679 27.3983 51.6433 27.3159C52.1192 27.2697 52.6018 27.3126 53.0811 27.3225C53.7168 27.3357 54.0197 27.0784 53.9998 26.4022C53.9631 25.2544 53.9332 24.0999 54.0097 22.9586C54.073 21.9988 53.6736 21.7085 52.7683 21.725C50.8911 21.7613 49.0106 21.7151 47.1334 21.7547C46.1648 21.7745 45.8886 21.3259 45.9185 20.4452C45.9518 19.4788 46.6175 19.5315 47.2632 19.5315C50.8611 19.5217 54.4591 19.5249 58.057 19.5184C61.615 19.5118 60.9327 19.3765 60.9893 22.4441C61.0192 24.0933 60.9926 24.0999 62.6202 24.0999C71.7731 24.1032 80.9294 24.0999 90.0824 24.1032C91.7299 24.1032 91.71 24.1065 91.7599 25.726C91.7732 26.2142 91.7765 26.864 92.0694 27.1477C92.7551 27.8107 94.8286 27.1543 95.238 26.2505C97.6478 20.907 104.511 19.9109 108.388 24.3407C108.608 24.5914 108.838 24.8355 109.117 25.1455C110.821 22.797 113.018 21.5337 115.801 21.5436C118.57 21.5535 120.733 22.8696 122.397 25.1191C122.747 24.7398 123.01 24.4528 123.273 24.1626C127.114 19.9109 133.937 21.0027 136.26 26.2373C136.34 26.4187 136.356 26.6991 136.49 26.7716C136.899 26.9893 137.352 27.2565 137.784 27.2466C138.001 27.24 138.36 26.6892 138.383 26.3659C138.46 25.3005 138.417 24.2285 138.417 23.1598C138.417 20.1484 138.417 20.1154 141.369 20.0032C142.288 19.9669 142.501 19.6074 142.487 18.7729C142.444 16.3189 142.471 13.8615 142.471 11.4042C142.471 9.64279 142.471 9.6329 140.73 9.6329C111.028 9.6329 81.3288 9.6329 51.6266 9.6329C45.5158 9.6329 39.4083 9.60321 33.2974 9.64279C32.1425 9.64939 31.7431 9.26677 31.7963 8.12881C31.8729 6.46969 31.823 4.80067 31.8063 3.13825C31.8096 2.69626 31.7331 2.25427 31.6865 1.81227Z" fill="black"/>
<path d="M13.7136 35.4564C10.1356 35.463 7.40302 32.7813 7.40968 29.2652C7.41634 25.7623 10.1456 23.008 13.6636 22.9586C17.0619 22.9091 19.9908 25.8018 20.0042 29.219C20.0208 32.6824 17.2316 35.4498 13.7136 35.4564ZM13.8034 23.991C10.7913 23.9679 8.33496 26.3098 8.31166 29.2256C8.28836 32.0359 10.768 34.5295 13.6237 34.5691C16.5393 34.6087 18.9591 32.2536 18.9857 29.3411C19.019 26.3527 16.7524 24.0141 13.8034 23.991Z" fill="black"/>
<path d="M129.004 35.4564C125.499 35.4433 122.76 32.6594 122.79 29.1498C122.82 25.7986 125.679 22.9784 129.077 22.9586C132.585 22.9355 135.404 25.7887 135.384 29.3378C135.364 32.8045 132.585 35.4696 129.004 35.4564ZM129.134 23.9877C126.168 23.9614 123.828 26.2406 123.782 29.196C123.735 32.0986 126.085 34.5098 129.017 34.5692C131.866 34.6252 134.429 32.191 134.486 29.3741C134.542 26.4484 132.123 24.0141 129.134 23.9877Z" fill="black"/>
<path d="M102.361 35.4565C98.8725 35.4631 96.1499 32.7847 96.1266 29.3181C96.1033 25.7854 98.9491 22.9191 102.447 22.9587C105.872 22.9982 108.754 25.891 108.744 29.2851C108.731 32.7089 105.895 35.4466 102.361 35.4565ZM102.391 23.9911C99.435 23.9977 97.0519 26.3231 97.0253 29.2257C96.9986 32.0426 99.4816 34.5362 102.344 34.5692C105.296 34.6022 107.723 32.1778 107.706 29.2125C107.686 26.2538 105.379 23.9845 102.391 23.9911Z" fill="black"/>
<path d="M115.791 35.4532C112.253 35.4598 109.414 32.7188 109.397 29.2851C109.38 25.9042 112.273 23.0015 115.704 22.9553C119.176 22.9092 122.061 25.8085 122.035 29.3148C122.005 32.7814 119.292 35.4466 115.791 35.4532ZM115.804 23.9878C112.805 23.9713 110.449 26.2439 110.429 29.1663C110.409 32.1382 112.799 34.5659 115.758 34.5692C118.62 34.5725 121.096 32.1218 121.103 29.2719C121.113 26.3594 118.75 24.0043 115.804 23.9878Z" fill="black"/>
<path d="M42.8133 35.4564C39.2653 35.4432 36.5128 32.689 36.5627 29.1993C36.6126 25.7458 39.485 22.919 42.9065 22.9553C46.3314 22.9916 49.2071 25.8909 49.1904 29.2883C49.1705 32.7517 46.3613 35.4696 42.8133 35.4564ZM42.8033 23.991C39.8411 24.0009 37.5079 26.3329 37.5179 29.2718C37.5279 32.1547 39.9443 34.5593 42.8466 34.5724C45.7789 34.5823 48.2252 32.1118 48.1953 29.1729C48.1653 26.2603 45.7922 23.9811 42.8033 23.991Z" fill="black"/>
<path d="M20.0072 9.69227C20.0072 10.5631 19.9972 11.4338 20.0072 12.3046C20.0205 13.2282 19.5512 13.7625 18.6892 14.0429C16.163 14.8609 13.68 15.8571 11.1039 16.4673C9.55285 16.8334 7.85539 16.6751 6.22783 16.6256C5.4024 16.5992 5.25595 15.8868 5.85838 15.0127C7.09986 13.2183 8.36463 11.4437 9.62275 9.65928C10.3084 8.68624 10.9008 7.62744 11.7163 6.77644C12.2422 6.22889 13.0676 5.75062 13.8098 5.66486C15.3076 5.49334 16.8386 5.589 18.353 5.61868C19.5146 5.64177 19.9806 6.14973 20.0039 7.32068C20.0205 8.11231 20.0072 8.90064 20.0072 9.69227ZM6.74705 15.458C6.80031 15.5965 6.85689 15.735 6.91014 15.8703C8.27809 15.7614 9.69597 15.8505 11.0007 15.5041C13.4104 14.8675 15.7403 13.944 18.1267 13.2117C18.799 13.0039 19.0154 12.6642 19.012 12.0309C19.0054 10.8467 19.042 9.65928 19.0387 8.47514C19.0353 6.6412 19.002 6.84241 17.1382 6.59502C14.0195 6.17942 11.9692 7.23822 10.5014 10.0122C9.47963 11.9451 8.01516 13.6504 6.74705 15.458Z" fill="black"/>
<path d="M13.6435 32.5769C11.7862 32.567 10.3151 31.1223 10.2985 29.2916C10.2818 27.428 11.8129 25.8645 13.6701 25.8513C15.4774 25.8381 17.1049 27.4511 17.1083 29.2619C17.1183 31.0893 15.5506 32.5868 13.6435 32.5769ZM16.0732 29.2059C16.0565 27.8205 15.0147 26.8244 13.6268 26.8607C12.2722 26.897 11.2737 27.9722 11.3103 29.351C11.3469 30.644 12.3953 31.6632 13.7 31.6698C14.9815 31.6797 16.0898 30.5319 16.0732 29.2059Z" fill="black"/>
<path d="M129.157 32.5769C127.253 32.5967 125.709 31.1289 125.686 29.2752C125.662 27.4577 127.263 25.858 129.097 25.8646C130.948 25.8712 132.506 27.4313 132.499 29.2752C132.492 31.0959 131.015 32.5571 129.157 32.5769ZM126.721 29.2851C126.728 30.5847 127.753 31.6336 129.047 31.6666C130.375 31.7028 131.477 30.621 131.484 29.2785C131.49 27.9195 130.449 26.8574 129.101 26.8574C127.743 26.8541 126.711 27.9096 126.721 29.2851Z" fill="black"/>
<path d="M102.447 32.5736C100.497 32.5901 99.0322 31.1652 99.0322 29.2554C99.0356 27.3521 100.513 25.8711 102.421 25.8613C104.175 25.8514 105.776 27.4049 105.835 29.1729C105.895 30.9837 104.328 32.5571 102.447 32.5736ZM104.804 29.3015C104.824 27.9426 103.775 26.8673 102.421 26.8574C101.092 26.8475 99.9675 27.9426 99.9542 29.2554C99.9409 30.456 101.069 31.6104 102.311 31.6665C103.612 31.7226 104.784 30.611 104.804 29.3015Z" fill="black"/>
<path d="M119.099 29.3115C119.082 31.1916 117.654 32.5835 115.744 32.5769C113.787 32.5703 112.339 31.1058 112.379 29.1763C112.415 27.3489 113.946 25.8448 115.757 25.8481C117.631 25.8514 119.115 27.3885 119.099 29.3115ZM118.197 29.2158C118.17 27.9063 117.022 26.8245 115.694 26.8574C114.366 26.8871 113.271 28.0317 113.321 29.3379C113.367 30.5781 114.499 31.66 115.754 31.66C117.042 31.6567 118.223 30.4791 118.197 29.2158Z" fill="black"/>
<path d="M46.2079 29.295C46.1913 31.2345 44.7335 32.6132 42.7431 32.577C40.8592 32.5407 39.478 31.0992 39.5013 29.196C39.5212 27.3621 41.0257 25.8547 42.8429 25.8448C44.7002 25.8316 46.2246 27.3984 46.2079 29.295ZM42.8962 31.6666C44.1843 31.6369 45.3459 30.433 45.296 29.1795C45.2427 27.88 44.0711 26.808 42.7531 26.8607C41.4883 26.9102 40.4099 28.0152 40.4132 29.262C40.4199 30.5352 41.6148 31.693 42.8962 31.6666Z" fill="black"/>
</svg>
