<svg width="146" height="53" viewBox="0 0 146 53" fill="none" xmlns="http://www.w3.org/2000/svg">
<path d="M48.3628 33.9417C50.446 33.9417 52.233 33.9251 54.0232 33.945C55.82 33.965 56.0706 34.2344 56.0739 36.0308C56.0771 37.2683 56.0609 38.5092 56.0771 39.7467C56.0902 40.8212 55.6279 41.4 54.5473 41.41C54.3129 41.41 54.0786 41.41 53.8442 41.4333C52.0605 41.6129 50.765 41.4599 49.9349 39.2477C48.8348 36.3136 45.4984 35.0461 42.468 35.8512C39.3692 36.6729 37.3446 39.7201 37.618 42.378C37.6538 42.734 37.6278 43.0966 37.6115 43.4559C37.5659 44.6867 37.1786 45.1192 35.9775 45.1225C32.0292 45.1425 28.0808 45.1425 24.1325 45.1225C22.7329 45.1159 22.3618 44.73 22.339 43.2363C22.3065 41.1805 21.9452 39.2643 20.4511 37.744C18.5795 35.8412 16.3498 35.1027 13.8076 35.8911C11.3078 36.6662 9.6868 38.3994 9.13671 41.0707C8.75913 42.9136 8.76889 42.917 6.91028 42.9136C6.51968 42.9136 6.12908 42.8904 5.73848 42.9103C4.37138 42.9768 3.20934 42.5411 2.64297 41.2204C2.02778 39.7899 2.12868 38.3861 3.07589 37.0355C3.473 36.4666 3.80175 35.635 3.72689 34.9763C3.35907 31.8293 4.41369 29.2844 6.28207 26.8293C8.67775 23.679 10.7675 20.2925 13.0883 17.079C13.5407 16.4536 14.4586 16.1974 15.1259 15.7217C16.2977 14.8801 17.3296 15.1662 18.6381 15.6186C19.9368 16.0677 21.4992 15.7151 22.9444 15.7383C24.3473 15.7616 24.6501 16.0843 24.6501 17.538C24.6566 22.4515 24.6533 27.3649 24.6533 32.2817C24.6533 32.7508 24.6533 33.2198 24.6533 33.812C29.7832 33.812 34.7536 33.812 39.7207 33.812C39.7305 33.7354 39.737 33.6556 39.7468 33.5791C39.3529 33.5558 38.9623 33.5159 38.5685 33.5159C34.7764 33.5126 30.9843 33.5192 27.1922 33.5092C25.6038 33.5059 25.2555 33.1533 25.2555 31.5465C25.249 24.514 25.2522 17.4848 25.2555 10.4523C25.2555 8.29998 25.5191 8.02054 27.6056 8.02054C42.3443 8.01721 57.0797 8.01721 71.8183 8.01721C84.0539 8.01721 96.2895 8.01721 108.525 8.01721C119.032 8.01721 129.543 8.01721 140.05 8.02387C142.475 8.02387 142.611 8.17689 142.611 10.7018C142.611 20.1694 142.611 29.6404 142.611 39.108C142.611 41.084 142.322 41.3867 140.372 41.4067C139.005 41.4233 137.635 41.3767 136.267 41.42C135.489 41.4466 135.102 41.1871 134.842 40.3854C133.927 37.5777 131.945 35.9144 129.093 35.6416C126.275 35.3722 124.123 36.6928 122.668 39.1812C122.092 40.1658 121.903 40.1559 121.278 39.1246C118.703 34.8565 113.32 34.3642 110.306 38.1299C110.013 38.4992 109.762 38.9084 109.534 39.3242C109.101 40.1159 108.711 40.076 108.307 39.3076C107.35 37.4879 105.908 36.2903 103.932 35.8079C100.628 35.0029 97.2725 36.8325 96.169 40.1292C95.8533 41.074 95.4367 41.4366 94.4439 41.4333C83.0286 41.4033 71.6165 41.4167 60.2012 41.41C58.5867 41.41 58.2971 41.0873 58.2938 39.4373C58.2905 37.8006 58.284 36.1606 58.2938 34.5239C58.2971 34.0016 58.258 33.5625 57.5744 33.5625C54.6449 33.5658 51.7154 33.5525 48.7859 33.5525C48.7404 33.5658 48.685 33.6556 48.3628 33.9417ZM121.952 38.1532C122.079 38.1 122.128 38.0933 122.147 38.0667C126.131 32.478 134.031 34.301 135.737 39.8797C135.822 40.1592 136.359 40.4453 136.704 40.4652C137.833 40.5384 138.976 40.422 140.102 40.5151C141.274 40.6149 141.632 40.2257 141.625 38.9915C141.576 29.5239 141.599 20.0596 141.599 10.592C141.599 8.97861 141.596 8.97528 139.991 8.97528C129.204 8.97528 118.417 8.97528 107.633 8.97528C81.017 8.97528 54.4008 8.98194 27.7846 8.952C26.6551 8.952 26.232 9.17821 26.245 10.4523C26.3101 17.4017 26.2938 24.3543 26.2613 31.3037C26.258 32.2817 26.5315 32.6177 27.5145 32.6077C31.6971 32.5611 35.8798 32.6011 40.0593 32.5778C40.8828 32.5744 41.2831 32.8206 41.2864 33.7288C41.2896 34.6403 40.9023 34.8831 40.0723 34.8765C35.0693 34.8499 30.0664 34.8432 25.0634 34.8831C24.1032 34.8898 23.7419 34.5804 23.7582 33.5857C23.8038 31.1107 23.7745 28.6324 23.7712 26.1574C23.7712 23.3996 23.7712 20.6451 23.768 17.8873C23.768 17.2752 23.8005 16.6132 22.9086 16.6598C20.5683 16.7796 18.2312 16.5334 15.8876 16.6099C14.7451 16.6465 14.1136 17.1455 13.5212 18.0271C11.3534 21.2539 9.25389 24.534 6.91354 27.6211C5.24372 29.8266 4.32255 32.1021 4.70339 34.8898C4.84987 35.9643 4.56017 36.9124 3.81477 37.7507C3.01404 38.6489 3.14099 39.7666 3.52182 40.7912C3.89615 41.7926 4.78151 42.0055 5.7515 41.9356C6.02492 41.9156 6.30485 41.899 6.57176 41.9389C7.5743 42.0886 8.0235 41.7659 8.29366 40.6449C9.6868 34.8499 16.3042 32.7241 20.6985 36.623C22.5083 38.2331 23.3285 40.3355 23.2537 42.8005C23.2341 43.4392 23.143 44.1112 24.1325 44.1046C28.0418 44.0813 31.9478 44.0846 35.857 44.1046C36.5243 44.1079 36.7326 43.8218 36.7424 43.1731C36.7554 42.1818 36.6903 41.1505 36.9312 40.2091C37.6798 37.2983 40.3652 34.9929 43.1125 34.7368C46.6572 34.4074 49.6583 35.9709 50.9928 39.078C51.4908 40.239 52.106 40.6715 53.2583 40.4918C53.5643 40.4453 53.8833 40.4619 54.1957 40.4852C54.863 40.5351 55.0909 40.2058 55.0779 39.5537C55.0518 38.3561 55.029 37.1552 55.0844 35.961C55.1234 35.136 54.8728 34.8199 54.0362 34.8399C52.1614 34.8898 50.2832 34.8266 48.4083 34.8665C47.6076 34.8831 47.1487 34.6968 47.1584 33.7587C47.1649 32.8971 47.4709 32.5545 48.3432 32.5645C51.5885 32.6011 54.8305 32.6011 58.0757 32.5645C58.9839 32.5545 59.2182 32.9603 59.2052 33.792C59.1759 35.5485 59.241 37.3083 59.1857 39.0647C59.1499 40.1359 59.4851 40.5118 60.5886 40.5085C71.6881 40.4686 82.7877 40.4785 93.8873 40.5018C94.6457 40.5018 95.0526 40.3022 95.3716 39.5404C97.7119 33.9583 104.502 32.9271 108.31 37.5511C108.502 37.7873 108.567 38.1299 108.72 38.4892C112.467 33.5126 118.485 33.5126 121.952 38.1532Z" fill="black"/>
<path d="M128.543 36.1739C131.938 36.1639 134.646 38.8918 134.669 42.3448C134.695 45.9077 131.951 48.7553 128.488 48.7652C125.181 48.7719 122.359 45.9077 122.346 42.5311C122.33 38.945 125.025 36.1805 128.543 36.1739ZM128.465 47.7207C131.408 47.7406 133.797 45.3421 133.777 42.3881C133.758 39.5404 131.3 37.0455 128.52 37.0521C125.685 37.0588 123.296 39.5005 123.299 42.3881C123.303 45.3721 125.562 47.7007 128.465 47.7207Z" fill="black"/>
<path d="M15.5619 36.1705C19.035 36.1506 21.792 38.8685 21.8245 42.3415C21.8571 45.8178 19.0968 48.7286 15.7377 48.7585C12.3687 48.7885 9.52713 45.9974 9.51085 42.6375C9.49132 38.9317 12.0563 36.1905 15.5619 36.1705ZM15.6368 47.7239C18.5402 47.7539 20.8253 45.4352 20.8383 42.4546C20.848 39.4839 18.5533 37.0654 15.7116 37.0521C12.844 37.0388 10.3864 39.5305 10.3897 42.4413C10.393 45.3421 12.7301 47.694 15.6368 47.7239Z" fill="black"/>
<path d="M115.517 36.1739C118.957 36.1905 121.591 38.8718 121.604 42.3681C121.617 45.9209 118.821 48.8018 115.4 48.7618C112.067 48.7253 109.205 45.7512 109.245 42.3647C109.287 38.8851 112.05 36.1572 115.517 36.1739ZM115.419 47.7273C118.339 47.7372 120.673 45.4252 120.696 42.4978C120.718 39.5537 118.3 37.0455 115.442 37.0521C112.623 37.0588 110.26 39.5005 110.254 42.4113C110.25 45.3886 112.513 47.714 115.419 47.7273Z" fill="black"/>
<path d="M102.389 36.1739C105.836 36.1739 108.623 38.9649 108.61 42.4113C108.597 45.8577 105.784 48.7519 102.432 48.7618C98.9716 48.7718 96.2602 45.9375 96.2764 42.3281C96.2895 38.8518 98.9488 36.1739 102.389 36.1739ZM102.409 47.7239C105.345 47.7273 107.584 45.4485 107.591 42.4446C107.601 39.4872 105.329 37.1053 102.451 37.0521C99.6356 36.9989 97.139 39.5471 97.1488 42.4612C97.1586 45.3753 99.5022 47.7206 102.409 47.7239Z" fill="black"/>
<path d="M44.2289 36.1705C47.6304 36.1805 50.3288 38.9117 50.3385 42.3581C50.3515 45.891 47.5262 48.7985 44.1247 48.7585C40.7786 48.7186 38.0574 45.9143 38.0411 42.4945C38.0248 38.8585 40.6614 36.1639 44.2289 36.1705ZM44.1638 47.7273C47.0803 47.7306 49.3685 45.4253 49.3946 42.4645C49.4173 39.5171 46.9826 37.0188 44.1247 37.0521C41.3026 37.0854 38.9492 39.5404 38.9558 42.4446C38.9623 45.3986 41.257 47.724 44.1638 47.7273Z" fill="black"/>
<path d="M21.8313 22.854C21.8313 23.6524 21.8085 24.4508 21.8345 25.2459C21.8703 26.3004 21.3202 26.8493 20.4056 27.1554C18.0848 27.9305 15.803 28.8719 13.4366 29.4408C11.8384 29.8267 10.1198 29.7801 8.45647 29.7635C7.58413 29.7535 7.39859 28.9684 8.00402 28.0635C9.32555 26.0908 10.6601 24.1248 12.024 22.182C14.8949 18.1002 13.5636 18.7223 18.586 18.6591C21.8996 18.6192 21.8899 18.5826 21.8313 22.0124C21.828 22.2951 21.8313 22.5746 21.8313 22.854ZM8.78848 28.8586C10.3509 28.7621 11.7408 28.8885 13.0135 28.5526C15.3701 27.9271 17.6518 27.009 19.9792 26.2572C20.5944 26.0576 20.8906 25.7449 20.8808 25.0829C20.8613 23.5692 20.8515 22.0556 20.8743 20.542C20.8873 19.7403 20.4935 19.524 19.7839 19.544C18.5763 19.5773 17.3524 19.4409 16.1643 19.5939C15.5166 19.6771 14.7223 20.053 14.3448 20.5653C12.6099 22.9172 10.9986 25.3623 9.35159 27.7808C9.18233 28.0269 9.07166 28.313 8.78848 28.8586Z" fill="black"/>
<path d="M131.841 42.5144C131.815 44.3574 130.22 45.9076 128.41 45.8544C126.695 45.8045 125.158 44.1678 125.174 42.408C125.194 40.5451 126.717 39.0414 128.573 39.0614C130.428 39.078 131.867 40.6016 131.841 42.5144ZM130.838 42.4213C130.835 41.0341 129.806 39.9729 128.488 39.9962C127.153 40.0195 126.167 41.0906 126.19 42.4812C126.213 43.8052 127.199 44.8098 128.485 44.8231C129.829 44.8364 130.841 43.8052 130.838 42.4213Z" fill="black"/>
<path d="M15.6497 39.058C17.4986 39.0547 19.0122 40.595 18.9959 42.4612C18.9796 44.231 17.453 45.8112 15.7083 45.8611C13.9181 45.9143 12.3459 44.3308 12.3296 42.4645C12.3199 40.5617 13.7814 39.0614 15.6497 39.058ZM17.9836 42.4379C17.9966 41.0773 16.942 39.9829 15.6367 39.9962C14.3705 40.0095 13.3289 41.0474 13.2866 42.3415C13.2443 43.6788 14.2891 44.7965 15.6009 44.8198C16.9452 44.8431 17.9706 43.8185 17.9836 42.4379Z" fill="black"/>
<path d="M115.475 39.0547C117.359 39.0647 118.762 40.5451 118.739 42.5011C118.717 44.3374 117.236 45.8544 115.458 45.861C113.671 45.8677 112.135 44.2277 112.174 42.3614C112.213 40.4785 113.642 39.0481 115.475 39.0547ZM115.4 44.8198C116.751 44.8431 117.825 43.8085 117.857 42.4612C117.887 41.1771 116.764 40.0228 115.465 40.0028C114.234 39.9829 113.141 41.054 113.089 42.3315C113.033 43.6788 114.078 44.7998 115.4 44.8198Z" fill="black"/>
<path d="M102.399 39.058C104.258 39.058 105.781 40.595 105.755 42.4512C105.732 44.221 104.183 45.8311 102.474 45.8544C100.596 45.881 99.092 44.3175 99.1115 42.3481C99.131 40.4985 100.573 39.058 102.399 39.058ZM102.324 44.8198C103.62 44.8664 104.687 43.8917 104.752 42.6009C104.827 41.1771 103.786 40.0095 102.428 39.9962C101.198 39.9829 100.091 41.0474 100.026 42.3148C99.9578 43.6455 100.99 44.7732 102.324 44.8198Z" fill="black"/>
<path d="M40.8922 42.3714C40.9085 40.4918 42.3309 39.0547 44.1733 39.0581C46.0709 39.0581 47.4804 40.5351 47.4511 42.4878C47.425 44.3275 45.9342 45.861 44.1733 45.8644C42.3732 45.8644 40.8759 44.2709 40.8922 42.3714ZM44.1147 40.0228C42.8192 40.0527 41.732 41.2137 41.7841 42.5178C41.8362 43.8085 42.8843 44.8231 44.1668 44.8198C45.4981 44.8165 46.5787 43.7287 46.5624 42.4013C46.5462 41.0906 45.4167 39.9928 44.1147 40.0228Z" fill="black"/>
</svg>
