<svg width="68" height="48" viewBox="0 0 68 48" fill="none" xmlns="http://www.w3.org/2000/svg">
<g clip-path="url(#clip0)">
<path d="M26.1165 29.8585C26.1165 29.5077 26.1165 29.1568 26.1165 28.8087C26.1165 22.602 26.1328 16.3953 26.0947 10.1913C26.0893 9.25022 26.3694 8.9592 27.3159 8.96192C39.1067 8.98912 55.0465 8.9864 66.8372 8.96736C67.6314 8.96736 68.0122 9.11151 68.0067 10.0335C67.9741 17.4805 67.9904 24.9275 67.9904 32.3744C67.9904 33.805 67.9904 33.8078 66.519 33.8078C65.703 33.8078 64.8843 33.8268 64.0683 33.8023C63.5053 33.786 63.2632 33.9628 63.2442 34.5802C63.2007 35.9918 62.9722 36.174 61.5334 36.1931C61.3702 36.1958 61.2043 36.1768 61.0438 36.2012C59.6648 36.4025 58.77 36.1332 58.207 34.5639C57.4672 32.4995 55.1362 31.2674 53.0038 31.4524C50.6049 31.6618 48.8995 32.9184 48.0754 35.1786C47.7843 35.9782 47.4063 36.2774 46.6094 36.2121C46.1225 36.174 45.6302 36.2203 45.1406 36.204C44.6184 36.1876 44.2675 36.2937 43.9683 36.835C43.7861 37.1613 43.1633 37.4061 42.7362 37.4088C38.1641 37.4442 29.4456 37.4143 24.8708 37.4252C24.1337 37.4279 23.8182 37.2321 23.693 36.3998C23.2579 33.5167 21.0901 31.5639 18.3621 31.4333C15.8625 31.3137 13.5533 33.0217 12.8108 35.5403C12.7917 35.6029 12.7591 35.66 12.7428 35.7225C12.3212 37.4388 12.3212 37.4388 10.4934 37.4224C10.4608 37.4224 10.4281 37.4224 10.3955 37.4224C9.15251 37.4415 7.85512 37.4116 7.31658 36.0489C6.82156 34.7924 6.86236 33.5276 7.84696 32.388C8.14615 32.0426 8.29846 31.4034 8.2359 30.9383C7.8796 28.3273 8.81252 26.2248 10.3955 24.1958C12.4001 21.6228 14.1925 18.8867 16.0502 16.2022C16.5207 15.5195 17.0919 15.1822 17.9242 15.1904C20.0158 15.2094 22.1046 15.1849 24.1962 15.1985C25.4202 15.2067 25.6758 15.4651 25.6786 16.7244C25.6894 20.709 25.6786 24.6935 25.6867 28.6808C25.6867 29.0807 25.7438 29.4778 25.7738 29.8776C25.888 29.8749 26.0022 29.8667 26.1165 29.8585ZM49.1225 9.72348C43.5359 9.72348 33.8056 9.72076 28.2189 9.72348C26.9352 9.72348 26.9243 9.73164 26.9243 11.0263C26.9243 17.233 26.927 23.437 26.9433 29.6437C26.946 30.3889 26.8672 30.8839 25.8962 30.8676C24.9823 30.8513 24.9197 30.3998 24.9224 29.6926C24.9388 25.4469 24.917 21.2013 24.9442 16.9528C24.9496 16.1858 24.7048 15.9193 23.9324 15.9356C22.0067 15.9764 20.0756 15.8921 18.1526 15.9873C17.6277 16.0145 16.9532 16.3735 16.6458 16.7978C14.255 20.1024 11.9132 23.4451 9.61761 26.8177C9.25586 27.3481 9.11987 28.0716 9.02467 28.7271C8.92404 29.3989 8.97299 30.0979 9.00563 30.7806C9.04915 31.7271 8.88052 32.5539 8.2087 33.3073C7.58313 34.0063 7.66201 34.9011 8.02647 35.7062C8.36102 36.4433 9.03555 36.6718 9.8216 36.6228C10.1806 36.6011 10.5451 36.582 10.8987 36.6255C11.546 36.7098 11.8044 36.4243 11.954 35.8096C12.7564 32.5158 15.0982 30.6555 18.3158 30.7017C21.3648 30.7452 23.7447 32.7497 24.4138 35.9075C24.5253 36.4324 24.7103 36.6255 25.2298 36.6255C29.6387 36.6147 38.194 36.6255 42.6057 36.6011C42.8586 36.5983 43.3183 36.3535 43.3319 36.1931C43.3944 35.4179 43.8895 35.4261 44.4389 35.4397C44.9937 35.4506 45.554 35.3962 46.1035 35.4533C46.8324 35.5267 47.1778 35.2466 47.4797 34.5612C48.584 32.0562 50.5369 30.7153 53.3057 30.7126C56.08 30.7126 57.9894 32.0888 59.1535 34.5584C59.5778 35.4614 60.2686 35.7008 61.8734 35.4288C62.8444 35.2656 62.3684 34.4877 62.3847 34.009C62.4092 33.2584 62.7111 33.038 63.3992 33.0707C64.1499 33.106 64.9006 33.0788 65.6513 33.0761C67.2098 33.0707 67.2125 33.0707 67.218 31.5448C67.2397 24.6555 67.2561 17.7661 67.2914 10.8794C67.2968 10.0063 66.9732 9.699 66.0729 9.70444C60.4237 9.74251 54.7745 9.7262 49.1225 9.72348Z" fill="black"/>
<path d="M58.4006 37.0635C58.3952 39.9084 56.067 42.223 53.2328 42.1985C50.4259 42.1741 48.0949 39.8078 48.0977 36.9819C48.1004 34.1586 50.4286 31.893 53.3144 31.9039C56.2274 31.9148 58.4061 34.126 58.4006 37.0635ZM53.2383 41.3554C55.6807 41.369 57.6255 39.4923 57.6635 37.0879C57.7016 34.7081 55.6345 32.6056 53.2763 32.6274C50.8747 32.6491 48.949 34.5911 48.9381 37.0009C48.9272 39.4406 50.804 41.3418 53.2383 41.3554Z" fill="black"/>
<path d="M18.1825 31.9039C21.1309 31.9066 23.3014 34.1342 23.2878 37.1369C23.2742 39.9329 20.9786 42.1958 18.1526 42.1985C15.3647 42.2013 12.9794 39.8051 12.9903 37.009C13.0012 34.1641 15.3022 31.9012 18.1825 31.9039ZM18.1417 41.3554C20.5679 41.3581 22.5235 39.4651 22.5616 37.0743C22.5997 34.7189 20.5271 32.6301 18.1526 32.6328C15.7727 32.6355 13.8226 34.6101 13.8307 37.0145C13.8416 39.476 15.702 41.3499 18.1417 41.3554Z" fill="black"/>
<path d="M23.2958 21.0299C23.2958 21.7153 23.2741 22.4007 23.3013 23.0834C23.3312 23.8694 22.9123 24.2774 22.2215 24.5032C20.2224 25.1614 18.2531 25.9529 16.2132 26.4397C14.9104 26.7525 13.5015 26.6845 12.1416 26.66C11.4616 26.6491 11.2549 26.0589 11.671 25.4551C13.2948 23.0916 14.9131 20.7226 16.6185 18.4161C16.9313 17.9918 17.6276 17.6791 18.1743 17.6301C19.4689 17.5159 20.7799 17.6002 22.0855 17.592C22.8933 17.5866 23.2931 17.9755 23.2985 18.7779C23.2985 19.5286 23.2958 20.2792 23.2958 21.0299ZM12.3374 25.9284C13.749 25.8495 14.9158 25.961 15.9793 25.6863C17.9512 25.1723 19.8552 24.4107 21.8026 23.7987C22.3711 23.6192 22.5832 23.3146 22.5723 22.7434C22.5506 21.5712 22.5451 20.3962 22.5751 19.2239C22.5914 18.5385 22.2949 18.2965 21.6367 18.3155C20.6603 18.3427 19.6784 18.3509 18.7019 18.3128C17.8968 18.2801 17.3665 18.6092 16.9231 19.2729C15.8188 20.9266 14.6629 22.5422 13.5287 24.1741C13.186 24.6664 12.8542 25.1695 12.3374 25.9284Z" fill="black"/>
<path d="M53.2466 34.2675C54.8405 34.2593 56.0318 35.4479 56.0236 37.0417C56.0155 38.5567 54.7888 39.8187 53.3119 39.8268C51.7997 39.835 50.4778 38.5077 50.5023 37.0063C50.5268 35.4642 51.7235 34.2729 53.2466 34.2675ZM53.2086 38.9782C54.321 39.0082 55.243 38.1568 55.2784 37.0689C55.311 36.0136 54.3727 35.0508 53.3038 35.0399C52.2457 35.0317 51.3618 35.864 51.3101 36.922C51.2557 38.0236 52.1097 38.9483 53.2086 38.9782Z" fill="black"/>
<path d="M20.9245 37.0635C20.9081 38.5621 19.6842 39.8023 18.2018 39.8241C16.7277 39.8431 15.3596 38.4968 15.3677 37.0335C15.3759 35.5023 16.6379 34.262 18.1855 34.2647C19.7413 34.2675 20.9408 35.4914 20.9245 37.0635ZM18.1366 38.981C19.23 38.9973 20.1493 38.1106 20.1629 37.0281C20.1738 35.9891 19.1946 35.0073 18.161 35.0209C17.1356 35.0345 16.2381 35.9266 16.2109 36.9574C16.181 38.0834 17.0214 38.9646 18.1366 38.981Z" fill="black"/>
</g>
<defs>
<clipPath id="clip0">
<rect width="68" height="48" fill="white"/>
</clipPath>
</defs>
</svg>
